# Blender 4.4.1
# www.blender.org
mtllib player.mtl
o Icosphere
v 0.145306 0.422859 -0.098538
v -0.380422 0.422859 -0.451334
v -0.380422 0.422859 -1.340549
v 0.145306 0.422859 -1.616241
v 0.470228 0.422856 -0.921743
v 0.000000 0.945528 -0.932449
v 0.500000 -0.000000 -0.650203
v 0.500000 -0.000000 -1.161063
v 0.000000 0.000000 0.244300
v 0.309016 -0.000000 -0.110922
v -0.500000 -0.000000 -0.650191
v -0.309016 -0.000000 -0.102508
v -0.309016 -0.000000 -1.575152
v -0.500000 -0.000000 -1.161051
v 0.309016 -0.000000 -1.575152
v 0.000000 -0.000000 -1.755698
v 0.361802 0.497099 -0.493304
v -0.138198 0.497099 -0.132056
v -0.447212 0.497099 -0.918959
v -0.138198 0.497099 -1.580180
v 0.361802 0.497099 -1.320103
v 0.085408 0.804317 -0.502196
v 0.276392 0.804317 -0.931883
v -0.223606 0.804317 -0.663299
v -0.223606 0.804317 -1.170917
v 0.085408 0.804317 -1.326485
v -0.241164 0.997721 -0.304308
v -0.266420 0.994261 -0.300634
v -0.291058 0.982902 -0.298212
v -0.314130 0.964083 -0.297138
v -0.334752 0.938528 -0.297452
v -0.352128 0.907215 -0.299142
v -0.365592 0.871351 -0.302144
v -0.374626 0.832314 -0.306340
v -0.378884 0.791602 -0.311572
v -0.378202 0.750781 -0.317638
v -0.372606 0.711422 -0.324304
v -0.362310 0.675035 -0.331314
v -0.347710 0.643016 -0.338398
v -0.329368 0.616598 -0.345286
v -0.307990 0.596798 -0.351712
v -0.284394 0.584374 -0.357428
v -0.259490 0.579804 -0.362214
v -0.234234 0.583265 -0.365890
v -0.209596 0.594624 -0.368312
v -0.186524 0.613443 -0.369386
v -0.165904 0.639001 -0.369072
v -0.148528 0.670310 -0.367380
v -0.135064 0.706174 -0.364380
v -0.126028 0.745212 -0.360182
v -0.121770 0.785923 -0.354950
v -0.122454 0.826745 -0.348886
v -0.128050 0.866104 -0.342220
v -0.138346 0.902494 -0.335210
v -0.152946 0.934510 -0.328124
v -0.171286 0.960928 -0.321238
v -0.192666 0.980727 -0.314812
v -0.216260 0.993151 -0.309096
v -0.270468 1.003117 -0.325090
v -0.245212 1.006578 -0.328764
v -0.295106 0.991758 -0.322668
v -0.318178 0.972939 -0.321594
v -0.338798 0.947384 -0.321908
v -0.356176 0.916072 -0.323598
v -0.369640 0.880208 -0.326600
v -0.378674 0.841170 -0.330798
v -0.382932 0.800459 -0.336030
v -0.382248 0.759637 -0.342094
v -0.376652 0.720278 -0.348760
v -0.366356 0.683888 -0.355770
v -0.351758 0.651872 -0.362854
v -0.333416 0.625454 -0.369742
v -0.312036 0.605655 -0.376168
v -0.288442 0.593231 -0.381884
v -0.263538 0.588661 -0.386672
v -0.238282 0.592121 -0.390346
v -0.213644 0.603480 -0.392768
v -0.190572 0.622299 -0.393842
v -0.169950 0.647854 -0.393528
v -0.152574 0.679167 -0.391838
v -0.139110 0.715030 -0.388836
v -0.130076 0.754068 -0.384638
v -0.125818 0.794779 -0.379408
v -0.126500 0.835601 -0.373342
v -0.132098 0.874960 -0.366676
v -0.142394 0.911350 -0.359666
v -0.156992 0.943366 -0.352582
v -0.175334 0.969784 -0.345694
v -0.196712 0.989583 -0.339268
v -0.220308 1.002008 -0.333552
vn 0.5362 0.5060 0.6756
vn 0.8598 0.3791 0.3422
vn 0.2943 0.8298 0.4742
vn -0.8853 0.3134 0.3436
vn -0.4671 0.5586 0.6854
vn -0.6352 0.7228 0.2721
vn -0.8580 0.2904 -0.4237
vn -0.9457 0.3250 -0.0070
vn -0.6349 0.7034 -0.3196
vn 0.4104 0.3607 -0.8375
vn -0.3993 0.4240 -0.8129
vn 0.2653 0.7786 -0.5686
vn 0.9639 0.2662 -0.0062
vn 0.8405 0.3499 -0.4137
vn 0.7434 0.6687 -0.0137
vn -0.0049 0.9999 -0.0134
vn 0.9636 0.1389 -0.2285
vn 0.7364 0.1635 -0.6565
vn -0.2920 0.2452 -0.9244
vn -0.7103 0.1725 -0.6825
vn -0.9700 0.1373 -0.2007
vn -0.9746 0.1487 0.1673
vn -0.8020 0.2571 0.5391
vn -0.7159 0.2839 0.6379
vn 0.0679 0.6142 0.7863
vn 0.8165 0.2550 0.5180
vn 0.9678 0.1554 0.1981
vn 0.5014 0.1107 -0.8581
vn 0.7279 0.2632 0.6332
vn -0.0000 -1.0000 -0.0000
vn -0.1616 0.1424 -0.9765
vn 0.1616 -0.1424 0.9765
vn -0.9686 0.1345 0.2090
vn -0.9851 0.0213 0.1708
vn -0.9679 0.1381 0.2102
vn 0.9380 0.3452 -0.0303
vn 0.9721 0.2201 -0.0812
vn 0.9727 0.2168 -0.0824
vn -0.9854 0.0177 0.1695
vn -0.9870 -0.0959 0.1287
vn 0.8749 0.4833 0.0302
vn 0.9370 0.3482 -0.0290
vn -0.9869 -0.0993 0.1273
vn -0.9727 -0.2168 0.0824
vn 0.7702 0.6299 0.1006
vn 0.8735 0.4858 0.0313
vn -0.9721 -0.2201 0.0812
vn -0.9380 -0.3452 0.0303
vn 0.6061 0.7747 0.1802
vn 0.7685 0.6317 0.1016
vn 0.2230 -0.9042 -0.3643
vn -0.0765 -0.9415 -0.3283
vn -0.0766 -0.9415 -0.3283
vn -0.9370 -0.3481 0.0290
vn -0.8749 -0.4833 -0.0302
vn 0.3698 0.8915 0.2616
vn 0.6044 0.7758 0.1810
vn 0.4768 -0.7983 -0.3680
vn 0.2254 -0.9035 -0.3644
vn -0.8735 -0.4859 -0.0314
vn -0.7702 -0.6299 -0.1006
vn 0.0766 0.9415 0.3283
vn 0.3692 0.8917 0.2618
vn 0.6638 -0.6613 -0.3494
vn 0.4797 -0.7966 -0.3678
vn -0.7685 -0.6317 -0.1016
vn -0.6060 -0.7748 -0.1802
vn 0.0764 0.9415 0.3283
vn -0.2230 0.9042 0.3643
vn 0.7925 -0.5197 -0.3193
vn 0.6666 -0.6587 -0.3489
vn -0.6044 -0.7758 -0.1810
vn -0.3698 -0.8915 -0.2616
vn -0.2254 0.9036 0.3644
vn -0.4768 0.7983 0.3680
vn 0.8781 -0.3847 -0.2846
vn 0.7947 -0.5166 -0.3186
vn -0.3692 -0.8917 -0.2618
vn -0.4797 0.7966 0.3678
vn -0.6639 0.6612 0.3494
vn 0.9337 -0.2581 -0.2480
vn 0.8799 -0.3812 -0.2837
vn -0.6666 0.6587 0.3489
vn -0.7924 0.5198 0.3193
vn 0.9679 -0.1381 -0.2102
vn 0.9350 -0.2545 -0.2469
vn -0.7947 0.5166 0.3186
vn -0.8781 0.3847 0.2846
vn 0.9851 -0.0213 -0.1707
vn 0.9687 -0.1344 -0.2089
vn -0.8799 0.3812 0.2837
vn -0.9337 0.2581 0.2480
vn 0.9870 0.0958 -0.1287
vn 0.9854 -0.0177 -0.1695
vn -0.9350 0.2545 0.2469
vn 0.9869 0.0993 -0.1273
vn -0.1615 0.1422 -0.9766
vn -0.1616 0.1423 -0.9765
vn -0.1618 0.1422 -0.9765
vn -0.1619 0.1423 -0.9765
vn -0.1617 0.1424 -0.9765
vn -0.1615 0.1424 -0.9765
vn -0.1615 0.1424 -0.9766
vn -0.1615 0.1425 -0.9765
vn -0.1614 0.1425 -0.9765
vn -0.1614 0.1425 -0.9766
vn -0.1619 0.1424 -0.9765
vn -0.1618 0.1425 -0.9765
vn 0.1616 -0.1425 0.9765
vn 0.1617 -0.1424 0.9765
vn 0.1615 -0.1424 0.9765
vn 0.1614 -0.1424 0.9766
vn 0.1616 -0.1423 0.9765
vn 0.1615 -0.1421 0.9766
vn 0.1618 -0.1425 0.9765
vn 0.1612 -0.1423 0.9766
vt 0.181819 0.314921
vt 0.272728 0.314921
vt 0.227273 0.393651
vt 0.000000 0.314921
vt 0.090910 0.314921
vt 0.045455 0.393651
vt 0.727273 0.314921
vt 0.818182 0.314921
vt 0.772727 0.393651
vt 0.545455 0.314921
vt 0.636364 0.314921
vt 0.590909 0.393651
vt 0.363637 0.314921
vt 0.454546 0.314921
vt 0.409092 0.393651
vt 0.500000 0.393651
vt 0.454546 0.472382
vt 0.681818 0.393651
vt 0.636364 0.472382
vt 0.863636 0.393651
vt 0.818182 0.472382
vt 0.909091 0.314921
vt 0.136365 0.393651
vt 0.090910 0.472382
vt 0.318182 0.393651
vt 0.272728 0.472382
vt 0.409092 0.236191
vt 0.500000 0.236191
vt 0.590909 0.236191
vt 0.681818 0.236191
vt 0.772727 0.236191
vt 0.863636 0.236191
vt 0.045455 0.236191
vt 0.136365 0.236191
vt 0.227273 0.236191
vt 0.318182 0.236191
vt 0.954545 0.236191
vt 0.000000 0.000000
s 1
usemtl Material.002
f 1/1/1 17/2/2 22/3/3
f 2/4/4 18/5/5 24/6/6
f 3/7/7 19/8/8 25/9/9
f 4/10/10 20/11/11 26/12/12
f 5/13/13 21/14/14 23/15/15
f 23/15/15 26/16/12 6/17/16
f 23/15/15 21/14/14 26/16/12
f 21/14/14 4/10/10 26/16/12
f 26/12/12 25/18/9 6/19/16
f 26/12/12 20/11/11 25/18/9
f 20/11/11 3/7/7 25/18/9
f 25/9/9 24/20/6 6/21/16
f 25/9/9 19/8/8 24/20/6
f 19/8/8 2/22/4 24/20/6
f 24/6/6 22/23/3 6/24/16
f 24/6/6 18/5/5 22/23/3
f 18/5/5 1/1/1 22/23/3
f 22/3/3 23/25/15 6/26/16
f 22/3/3 17/2/2 23/25/15
f 17/2/2 5/13/13 23/25/15
f 8/27/17 21/14/14 5/13/13
f 8/27/17 15/28/18 21/14/14
f 15/28/18 4/10/10 21/14/14
f 16/29/19 20/11/11 4/10/10
f 16/29/19 13/30/20 20/11/11
f 13/30/20 3/7/7 20/11/11
f 14/31/21 19/8/8 3/7/7
f 14/31/21 11/32/22 19/8/8
f 11/32/22 2/22/4 19/8/8
f 12/33/23 18/5/5 2/4/4
f 12/33/23 9/34/24 18/5/5
f 9/34/25 1/1/1 18/5/5
f 10/35/26 17/2/2 1/1/1
f 10/35/26 7/36/27 17/2/2
f 7/36/27 5/13/13 17/2/2
f 15/28/18 16/29/28 4/10/10
f 13/30/20 14/31/21 3/7/7
f 11/32/22 12/37/23 2/22/4
f 9/34/29 10/35/26 1/1/1
f 7/36/27 8/27/17 5/13/13
f 9/34/30 13/30/30 15/28/30
f 45/38/31 37/38/31 29/38/31
f 75/38/32 83/38/32 60/38/32
f 50/38/33 83/38/34 82/38/35
f 38/38/36 69/38/37 37/38/38
f 51/38/39 84/38/40 83/38/34
f 39/38/41 70/38/42 38/38/36
f 52/38/43 85/38/44 84/38/40
f 40/38/45 71/38/46 39/38/41
f 53/38/47 86/38/48 85/38/44
f 41/38/49 72/38/50 40/38/45
f 28/38/51 60/38/52 27/38/53
f 54/38/54 87/38/55 86/38/48
f 42/38/56 73/38/57 41/38/49
f 29/38/58 59/38/59 28/38/51
f 55/38/60 88/38/61 87/38/55
f 42/38/56 75/38/62 74/38/63
f 30/38/64 61/38/65 29/38/58
f 56/38/66 89/38/67 88/38/61
f 43/38/68 76/38/69 75/38/62
f 31/38/70 62/38/71 30/38/64
f 57/38/72 90/38/73 89/38/67
f 44/38/74 77/38/75 76/38/69
f 32/38/76 63/38/77 31/38/70
f 27/38/53 90/38/73 58/38/78
f 45/38/79 78/38/80 77/38/75
f 33/38/81 64/38/82 32/38/76
f 46/38/83 79/38/84 78/38/80
f 34/38/85 65/38/86 33/38/81
f 47/38/87 80/38/88 79/38/84
f 35/38/89 66/38/90 34/38/85
f 48/38/91 81/38/92 80/38/88
f 36/38/93 67/38/94 35/38/89
f 49/38/95 82/38/35 81/38/92
f 37/38/38 68/38/96 36/38/93
f 15/28/30 8/27/30 7/36/30
f 7/36/30 10/35/30 9/34/30
f 9/34/30 12/33/30 11/32/30
f 11/32/30 14/31/30 13/30/30
f 13/30/30 16/29/30 15/28/30
f 15/28/30 7/36/30 9/34/30
f 9/34/30 11/32/30 13/30/30
f 29/38/31 28/38/97 27/38/31
f 27/38/31 58/38/98 57/38/31
f 57/38/31 56/38/99 55/38/31
f 55/38/31 54/38/100 53/38/31
f 53/38/31 52/38/101 51/38/102
f 51/38/102 50/38/103 49/38/31
f 49/38/31 48/38/31 47/38/31
f 47/38/31 46/38/98 45/38/31
f 45/38/31 44/38/31 43/38/98
f 43/38/98 42/38/104 41/38/31
f 41/38/31 40/38/105 39/38/101
f 39/38/101 38/38/106 37/38/31
f 37/38/31 36/38/31 35/38/101
f 35/38/101 34/38/107 33/38/31
f 33/38/31 32/38/108 31/38/31
f 31/38/31 30/38/31 29/38/31
f 29/38/31 27/38/31 57/38/31
f 57/38/31 55/38/31 53/38/31
f 53/38/31 51/38/102 49/38/31
f 49/38/31 47/38/31 45/38/31
f 45/38/31 43/38/98 41/38/31
f 41/38/31 39/38/101 37/38/31
f 37/38/31 35/38/101 33/38/31
f 33/38/31 31/38/31 29/38/31
f 29/38/31 57/38/31 53/38/31
f 53/38/31 49/38/31 45/38/31
f 45/38/31 41/38/31 37/38/31
f 37/38/31 33/38/31 29/38/31
f 29/38/31 53/38/31 45/38/31
f 60/38/32 59/38/109 61/38/32
f 61/38/32 62/38/32 63/38/32
f 63/38/32 64/38/110 65/38/32
f 65/38/32 66/38/111 67/38/32
f 67/38/32 68/38/112 69/38/32
f 69/38/32 70/38/32 71/38/32
f 71/38/32 72/38/110 73/38/32
f 73/38/32 74/38/113 75/38/32
f 75/38/32 76/38/114 77/38/32
f 77/38/32 78/38/32 79/38/32
f 79/38/32 80/38/115 81/38/32
f 81/38/32 82/38/116 83/38/32
f 83/38/32 84/38/32 85/38/111
f 85/38/111 86/38/32 87/38/32
f 87/38/32 88/38/112 89/38/32
f 89/38/32 90/38/113 60/38/32
f 60/38/32 61/38/32 63/38/32
f 63/38/32 65/38/32 67/38/32
f 67/38/32 69/38/32 71/38/32
f 71/38/32 73/38/32 75/38/32
f 75/38/32 77/38/32 79/38/32
f 79/38/32 81/38/32 83/38/32
f 83/38/32 85/38/111 87/38/32
f 87/38/32 89/38/32 60/38/32
f 60/38/32 63/38/32 67/38/32
f 67/38/32 71/38/32 75/38/32
f 75/38/32 79/38/32 83/38/32
f 83/38/32 87/38/32 60/38/32
f 60/38/32 67/38/32 75/38/32
f 50/38/33 51/38/39 83/38/34
f 38/38/36 70/38/42 69/38/37
f 51/38/39 52/38/43 84/38/40
f 39/38/41 71/38/46 70/38/42
f 52/38/43 53/38/47 85/38/44
f 40/38/45 72/38/50 71/38/46
f 53/38/47 54/38/54 86/38/48
f 41/38/49 73/38/57 72/38/50
f 28/38/51 59/38/59 60/38/52
f 54/38/54 55/38/60 87/38/55
f 42/38/56 74/38/63 73/38/57
f 29/38/58 61/38/65 59/38/59
f 55/38/60 56/38/66 88/38/61
f 42/38/56 43/38/68 75/38/62
f 30/38/64 62/38/71 61/38/65
f 56/38/66 57/38/72 89/38/67
f 43/38/68 44/38/74 76/38/69
f 31/38/70 63/38/77 62/38/71
f 57/38/72 58/38/78 90/38/73
f 44/38/74 45/38/79 77/38/75
f 32/38/76 64/38/82 63/38/77
f 27/38/53 60/38/52 90/38/73
f 45/38/79 46/38/83 78/38/80
f 33/38/81 65/38/86 64/38/82
f 46/38/83 47/38/87 79/38/84
f 34/38/85 66/38/90 65/38/86
f 47/38/87 48/38/91 80/38/88
f 35/38/89 67/38/94 66/38/90
f 48/38/91 49/38/95 81/38/92
f 36/38/93 68/38/96 67/38/94
f 49/38/95 50/38/33 82/38/35
f 37/38/38 69/38/37 68/38/96
o Icosphere.001
v 0.145306 0.422859 -0.098538
v -0.380422 0.422859 -0.451334
v -0.380422 0.422859 -1.340549
v 0.145306 0.422859 -1.616241
v 0.470228 0.422856 -0.921743
v 0.000000 0.945528 -0.932449
v 0.500000 -0.000000 -0.650203
v 0.500000 -0.000000 -1.161063
v 0.000000 0.000000 0.244300
v 0.309016 -0.000000 -0.110922
v -0.500000 -0.000000 -0.650191
v -0.309016 -0.000000 -0.102508
v -0.309016 -0.000000 -1.575152
v -0.500000 -0.000000 -1.161051
v 0.309016 -0.000000 -1.575152
v 0.000000 -0.000000 -1.755700
v 0.361802 0.497099 -0.493304
v -0.138198 0.497099 -0.132056
v -0.447212 0.497099 -0.918959
v -0.138198 0.497099 -1.580180
v 0.361802 0.497099 -1.320105
v 0.085408 0.804317 -0.502196
v 0.276392 0.804317 -0.931883
v -0.223606 0.804317 -0.663299
v -0.223606 0.804317 -1.170917
v 0.085408 0.804317 -1.326485
v 0.278000 0.991301 -0.373640
v 0.252742 0.987840 -0.369966
v 0.228106 0.976485 -0.367544
v 0.205032 0.957666 -0.366470
v 0.184412 0.932108 -0.366784
v 0.167036 0.900795 -0.368474
v 0.153572 0.864934 -0.371476
v 0.144538 0.825897 -0.375674
v 0.140280 0.785185 -0.380906
v 0.140962 0.744364 -0.386970
v 0.146558 0.705005 -0.393636
v 0.156854 0.668614 -0.400646
v 0.171454 0.636596 -0.407732
v 0.189796 0.610181 -0.414618
v 0.211174 0.590378 -0.421044
v 0.234770 0.577954 -0.426760
v 0.259674 0.573387 -0.431548
v 0.284930 0.576848 -0.435222
v 0.309568 0.588207 -0.437644
v 0.332640 0.607026 -0.438718
v 0.353260 0.632580 -0.438404
v 0.370636 0.663893 -0.436714
v 0.384100 0.699757 -0.433712
v 0.393134 0.738795 -0.429516
v 0.397392 0.779506 -0.424284
v 0.396710 0.820324 -0.418218
v 0.391114 0.859687 -0.411552
v 0.380818 0.896074 -0.404542
v 0.366218 0.928092 -0.397458
v 0.347878 0.954507 -0.390570
v 0.326498 0.974310 -0.384144
v 0.302904 0.986734 -0.378428
v 0.248768 0.996539 -0.393982
v 0.274024 1.000000 -0.397656
v 0.224130 0.985180 -0.391560
v 0.201058 0.966361 -0.390486
v 0.180438 0.940804 -0.390800
v 0.163062 0.909494 -0.392490
v 0.149598 0.873630 -0.395492
v 0.140562 0.834592 -0.399690
v 0.136306 0.793881 -0.404922
v 0.136988 0.753060 -0.410986
v 0.142584 0.713700 -0.417652
v 0.152880 0.677310 -0.424662
v 0.167480 0.645294 -0.431746
v 0.185820 0.618876 -0.438634
v 0.207200 0.599077 -0.445060
v 0.230794 0.586653 -0.450776
v 0.255698 0.582083 -0.455564
v 0.280954 0.585543 -0.459238
v 0.305592 0.596902 -0.461660
v 0.328666 0.615722 -0.462734
v 0.349286 0.641276 -0.462420
v 0.366662 0.672589 -0.460730
v 0.380126 0.708453 -0.457728
v 0.389160 0.747490 -0.453530
v 0.393418 0.788202 -0.448300
v 0.392736 0.829020 -0.442234
v 0.387140 0.868382 -0.435568
v 0.376844 0.904769 -0.428558
v 0.362244 0.936788 -0.421474
v 0.343902 0.963206 -0.414586
v 0.322524 0.983006 -0.408160
v 0.298928 0.995430 -0.402444
vn 0.5362 0.5060 0.6756
vn 0.8598 0.3791 0.3422
vn 0.2943 0.8298 0.4742
vn -0.8853 0.3134 0.3436
vn -0.4671 0.5586 0.6854
vn -0.6352 0.7228 0.2721
vn -0.8580 0.2904 -0.4237
vn -0.9457 0.3250 -0.0070
vn -0.6349 0.7034 -0.3196
vn 0.4104 0.3607 -0.8375
vn -0.3993 0.4240 -0.8129
vn 0.2653 0.7786 -0.5686
vn 0.9639 0.2662 -0.0062
vn 0.8405 0.3499 -0.4137
vn 0.7434 0.6687 -0.0137
vn -0.0049 0.9999 -0.0134
vn 0.9636 0.1389 -0.2285
vn 0.7364 0.1635 -0.6565
vn -0.2920 0.2452 -0.9244
vn -0.7103 0.1725 -0.6825
vn -0.9700 0.1373 -0.2007
vn -0.9746 0.1487 0.1673
vn -0.8020 0.2571 0.5391
vn -0.7159 0.2839 0.6379
vn 0.0679 0.6142 0.7863
vn 0.8165 0.2550 0.5180
vn 0.9678 0.1554 0.1981
vn 0.5014 0.1107 -0.8581
vn 0.7279 0.2632 0.6332
vn -0.0000 -1.0000 -0.0000
vn -0.1616 0.1424 -0.9765
vn 0.1616 -0.1424 0.9765
vn -0.9350 0.2545 0.2469
vn -0.9679 0.1381 0.2102
vn -0.9337 0.2581 0.2480
vn 0.9727 0.2168 -0.0824
vn 0.9869 0.0993 -0.1273
vn 0.9870 0.0959 -0.1286
vn -0.9687 0.1344 0.2089
vn -0.9851 0.0212 0.1707
vn 0.9380 0.3452 -0.0302
vn 0.9721 0.2201 -0.0812
vn -0.9854 0.0177 0.1695
vn -0.9870 -0.0959 0.1287
vn 0.8749 0.4833 0.0302
vn 0.9370 0.3482 -0.0290
vn -0.9869 -0.0993 0.1273
vn -0.9727 -0.2169 0.0824
vn 0.7702 0.6299 0.1006
vn 0.8737 0.4855 0.0312
vn -0.9721 -0.2201 0.0812
vn -0.9380 -0.3452 0.0303
vn 0.6061 0.7747 0.1802
vn 0.7685 0.6317 0.1015
vn 0.2228 -0.9042 -0.3643
vn -0.0764 -0.9415 -0.3283
vn -0.0766 -0.9415 -0.3283
vn -0.9370 -0.3482 0.0290
vn -0.8749 -0.4833 -0.0302
vn 0.3699 0.8915 0.2616
vn 0.6044 0.7758 0.1810
vn 0.4772 -0.7981 -0.3680
vn 0.2254 -0.9035 -0.3644
vn -0.8735 -0.4858 -0.0313
vn -0.7702 -0.6298 -0.1006
vn 0.0770 0.9415 0.3282
vn 0.3698 0.8915 0.2617
vn 0.6638 -0.6613 -0.3494
vn 0.4797 -0.7966 -0.3678
vn -0.7685 -0.6317 -0.1016
vn -0.6061 -0.7747 -0.1802
vn 0.0764 0.9415 0.3282
vn -0.2235 0.9041 0.3643
vn 0.7924 -0.5198 -0.3193
vn 0.6667 -0.6587 -0.3488
vn -0.6045 -0.7758 -0.1809
vn -0.3702 -0.8914 -0.2615
vn -0.2254 0.9035 0.3644
vn -0.4766 0.7984 0.3680
vn 0.8781 -0.3847 -0.2846
vn 0.7947 -0.5166 -0.3186
vn -0.3691 -0.8918 -0.2618
vn -0.4797 0.7966 0.3678
vn -0.6639 0.6612 0.3493
vn 0.9337 -0.2581 -0.2480
vn 0.8799 -0.3812 -0.2837
vn -0.6666 0.6587 0.3489
vn -0.7925 0.5197 0.3193
vn 0.9679 -0.1381 -0.2102
vn 0.9350 -0.2545 -0.2469
vn -0.7947 0.5166 0.3186
vn -0.8781 0.3847 0.2846
vn 0.9851 -0.0213 -0.1707
vn 0.9687 -0.1344 -0.2089
vn -0.8799 0.3812 0.2837
vn 0.9854 -0.0177 -0.1695
vn -0.1616 0.1425 -0.9765
vn -0.1617 0.1423 -0.9765
vn -0.1615 0.1425 -0.9765
vn -0.1617 0.1424 -0.9765
vn -0.1614 0.1425 -0.9766
vn -0.1614 0.1424 -0.9766
vn -0.1619 0.1424 -0.9765
vn -0.1615 0.1424 -0.9766
vn -0.1618 0.1422 -0.9765
vn -0.1615 0.1424 -0.9765
vn -0.1620 0.1423 -0.9765
vn -0.1618 0.1425 -0.9765
vn -0.1615 0.1423 -0.9766
vn 0.1615 -0.1422 0.9766
vn 0.1617 -0.1424 0.9765
vn 0.1614 -0.1424 0.9766
vn 0.1620 -0.1424 0.9765
vn 0.1615 -0.1424 0.9765
vn 0.1616 -0.1423 0.9765
vn 0.1616 -0.1426 0.9765
vn 0.1615 -0.1423 0.9766
vn 0.1619 -0.1423 0.9765
vn 0.1614 -0.1425 0.9766
vn 0.1617 -0.1423 0.9765
vt 0.181819 0.314921
vt 0.272728 0.314921
vt 0.227273 0.393651
vt 0.000000 0.314921
vt 0.090910 0.314921
vt 0.045455 0.393651
vt 0.727273 0.314921
vt 0.818182 0.314921
vt 0.772727 0.393651
vt 0.545455 0.314921
vt 0.636364 0.314921
vt 0.590909 0.393651
vt 0.363637 0.314921
vt 0.454546 0.314921
vt 0.409092 0.393651
vt 0.500000 0.393651
vt 0.454546 0.472382
vt 0.681818 0.393651
vt 0.636364 0.472382
vt 0.863636 0.393651
vt 0.818182 0.472382
vt 0.909091 0.314921
vt 0.136365 0.393651
vt 0.090910 0.472382
vt 0.318182 0.393651
vt 0.272728 0.472382
vt 0.409092 0.236191
vt 0.500000 0.236191
vt 0.590909 0.236191
vt 0.681818 0.236191
vt 0.772727 0.236191
vt 0.863636 0.236191
vt 0.045455 0.236191
vt 0.136365 0.236191
vt 0.227273 0.236191
vt 0.318182 0.236191
vt 0.954545 0.236191
vt 0.000000 0.000000
s 1
usemtl Material.002
f 91/39/117 107/40/118 112/41/119
f 92/42/120 108/43/121 114/44/122
f 93/45/123 109/46/124 115/47/125
f 94/48/126 110/49/127 116/50/128
f 95/51/129 111/52/130 113/53/131
f 113/53/131 116/54/128 96/55/132
f 113/53/131 111/52/130 116/54/128
f 111/52/130 94/48/126 116/54/128
f 116/50/128 115/56/125 96/57/132
f 116/50/128 110/49/127 115/56/125
f 110/49/127 93/45/123 115/56/125
f 115/47/125 114/58/122 96/59/132
f 115/47/125 109/46/124 114/58/122
f 109/46/124 92/60/120 114/58/122
f 114/44/122 112/61/119 96/62/132
f 114/44/122 108/43/121 112/61/119
f 108/43/121 91/39/117 112/61/119
f 112/41/119 113/63/131 96/64/132
f 112/41/119 107/40/118 113/63/131
f 107/40/118 95/51/129 113/63/131
f 98/65/133 111/52/130 95/51/129
f 98/65/133 105/66/134 111/52/130
f 105/66/134 94/48/126 111/52/130
f 106/67/135 110/49/127 94/48/126
f 106/67/135 103/68/136 110/49/127
f 103/68/136 93/45/123 110/49/127
f 104/69/137 109/46/124 93/45/123
f 104/69/137 101/70/138 109/46/124
f 101/70/138 92/60/120 109/46/124
f 102/71/139 108/43/121 92/42/120
f 102/71/139 99/72/140 108/43/121
f 99/72/141 91/39/117 108/43/121
f 100/73/142 107/40/118 91/39/117
f 100/73/142 97/74/143 107/40/118
f 97/74/143 95/51/129 107/40/118
f 105/66/134 106/67/144 94/48/126
f 103/68/136 104/69/137 93/45/123
f 101/70/138 102/75/139 92/60/120
f 99/72/145 100/73/142 91/39/117
f 97/74/143 98/65/133 95/51/129
f 99/72/146 103/68/146 105/66/146
f 135/76/147 127/76/147 119/76/147
f 165/76/148 173/76/148 150/76/148
f 139/76/149 172/76/150 171/76/151
f 127/76/152 158/76/153 126/76/154
f 140/76/155 173/76/156 172/76/150
f 128/76/157 159/76/158 127/76/152
f 141/76/159 174/76/160 173/76/156
f 129/76/161 160/76/162 128/76/157
f 142/76/163 175/76/164 174/76/160
f 130/76/165 161/76/166 129/76/161
f 143/76/167 176/76/168 175/76/164
f 131/76/169 162/76/170 130/76/165
f 118/76/171 150/76/172 117/76/173
f 144/76/174 177/76/175 176/76/168
f 132/76/176 163/76/177 131/76/169
f 119/76/178 149/76/179 118/76/171
f 145/76/180 178/76/181 177/76/175
f 132/76/176 165/76/182 164/76/183
f 120/76/184 151/76/185 119/76/178
f 146/76/186 179/76/187 178/76/181
f 133/76/188 166/76/189 165/76/182
f 121/76/190 152/76/191 120/76/184
f 147/76/192 180/76/193 179/76/187
f 134/76/194 167/76/195 166/76/189
f 122/76/196 153/76/197 121/76/190
f 117/76/173 180/76/193 148/76/198
f 135/76/199 168/76/200 167/76/195
f 123/76/201 154/76/202 122/76/196
f 136/76/203 169/76/204 168/76/200
f 124/76/205 155/76/206 123/76/201
f 137/76/207 170/76/208 169/76/204
f 125/76/209 156/76/210 124/76/205
f 138/76/211 171/76/151 170/76/208
f 126/76/154 157/76/212 125/76/209
f 105/66/146 98/65/146 97/74/146
f 97/74/146 100/73/146 99/72/146
f 99/72/146 102/71/146 101/70/146
f 101/70/146 104/69/146 103/68/146
f 103/68/146 106/67/146 105/66/146
f 105/66/146 97/74/146 99/72/146
f 99/72/146 101/70/146 103/68/146
f 119/76/147 118/76/213 117/76/147
f 117/76/147 148/76/214 147/76/147
f 147/76/147 146/76/215 145/76/216
f 145/76/216 144/76/217 143/76/147
f 143/76/147 142/76/218 141/76/216
f 141/76/216 140/76/219 139/76/147
f 139/76/147 138/76/220 137/76/147
f 137/76/147 136/76/147 135/76/147
f 135/76/147 134/76/213 133/76/147
f 133/76/147 132/76/214 131/76/147
f 131/76/147 130/76/221 129/76/147
f 129/76/147 128/76/222 127/76/147
f 127/76/147 126/76/223 125/76/222
f 125/76/222 124/76/220 123/76/147
f 123/76/147 122/76/224 121/76/147
f 121/76/147 120/76/225 119/76/147
f 119/76/147 117/76/147 147/76/147
f 147/76/147 145/76/216 143/76/147
f 143/76/147 141/76/216 139/76/147
f 139/76/147 137/76/147 135/76/147
f 135/76/147 133/76/147 131/76/147
f 131/76/147 129/76/147 127/76/147
f 127/76/147 125/76/222 123/76/147
f 123/76/147 121/76/147 119/76/147
f 119/76/147 147/76/147 143/76/147
f 143/76/147 139/76/147 135/76/147
f 135/76/147 131/76/147 127/76/147
f 127/76/147 123/76/147 119/76/147
f 119/76/147 143/76/147 135/76/147
f 150/76/148 149/76/226 151/76/148
f 151/76/148 152/76/148 153/76/148
f 153/76/148 154/76/227 155/76/148
f 155/76/148 156/76/228 157/76/148
f 157/76/148 158/76/229 159/76/148
f 159/76/148 160/76/230 161/76/148
f 161/76/148 162/76/148 163/76/148
f 163/76/148 164/76/231 165/76/148
f 165/76/148 166/76/232 167/76/148
f 167/76/148 168/76/148 169/76/148
f 169/76/148 170/76/233 171/76/148
f 171/76/148 172/76/148 173/76/148
f 173/76/148 174/76/234 175/76/230
f 175/76/230 176/76/235 177/76/148
f 177/76/148 178/76/236 179/76/148
f 179/76/148 180/76/231 150/76/148
f 150/76/148 151/76/148 153/76/148
f 153/76/148 155/76/148 157/76/148
f 157/76/148 159/76/148 161/76/148
f 161/76/148 163/76/148 165/76/148
f 165/76/148 167/76/148 169/76/148
f 169/76/148 171/76/148 173/76/148
f 173/76/148 175/76/230 177/76/148
f 177/76/148 179/76/148 150/76/148
f 150/76/148 153/76/148 157/76/148
f 157/76/148 161/76/148 165/76/148
f 165/76/148 169/76/148 173/76/148
f 173/76/148 177/76/148 150/76/148
f 150/76/148 157/76/148 165/76/148
f 139/76/149 140/76/155 172/76/150
f 127/76/152 159/76/158 158/76/153
f 140/76/155 141/76/159 173/76/156
f 128/76/157 160/76/162 159/76/158
f 141/76/159 142/76/163 174/76/160
f 129/76/161 161/76/166 160/76/162
f 142/76/163 143/76/167 175/76/164
f 130/76/165 162/76/170 161/76/166
f 143/76/167 144/76/174 176/76/168
f 131/76/169 163/76/177 162/76/170
f 118/76/171 149/76/179 150/76/172
f 144/76/174 145/76/180 177/76/175
f 132/76/176 164/76/183 163/76/177
f 119/76/178 151/76/185 149/76/179
f 145/76/180 146/76/186 178/76/181
f 132/76/176 133/76/188 165/76/182
f 120/76/184 152/76/191 151/76/185
f 146/76/186 147/76/192 179/76/187
f 133/76/188 134/76/194 166/76/189
f 121/76/190 153/76/197 152/76/191
f 147/76/192 148/76/198 180/76/193
f 134/76/194 135/76/199 167/76/195
f 122/76/196 154/76/202 153/76/197
f 117/76/173 150/76/172 180/76/193
f 135/76/199 136/76/203 168/76/200
f 123/76/201 155/76/206 154/76/202
f 136/76/203 137/76/207 169/76/204
f 124/76/205 156/76/210 155/76/206
f 137/76/207 138/76/211 170/76/208
f 125/76/209 157/76/212 156/76/210
f 138/76/211 139/76/149 171/76/151
f 126/76/154 158/76/153 157/76/212
