# Blender 4.4.1
# www.blender.org
mtllib SkyDome.mtl
o 球
v 0.000000 245.196320 48.772514
v 0.000000 230.969879 95.670799
v 0.000000 207.867447 138.892487
v 0.000000 176.776733 176.776611
v 0.000000 138.892593 207.867340
v 0.000000 95.670906 230.969833
v 0.000000 48.772644 245.196274
v 0.000000 0.000076 249.999954
v 0.000000 -48.772495 245.196289
v 0.000000 -207.867371 138.892563
v -9.515074 245.196320 47.835365
v -18.664478 230.969879 93.832512
v -27.096613 207.867447 136.223709
v -34.487438 176.776733 173.379898
v -40.552937 138.892593 203.873215
v -45.060001 95.670906 226.531799
v -47.835442 48.772644 240.484879
v -48.772594 0.000075 245.196274
v -47.835445 -48.772495 240.484894
v -45.060005 -95.670776 226.531815
v -40.552937 -138.892502 203.873306
v -34.487438 -176.776642 173.379990
v -27.096609 -207.867371 136.223785
v -18.664469 -230.969910 93.832558
v -9.515063 -245.196335 47.835419
v -18.664490 245.196320 45.059921
v -36.611683 230.969879 88.388290
v -53.151913 207.867447 128.319901
v -67.649544 176.776733 163.320267
v -79.547440 138.892593 192.044342
v -88.388367 95.670906 213.388275
v -93.832596 48.772633 226.531784
v -95.670883 0.000071 230.969818
v -93.832596 -48.772507 226.531784
v -88.388374 -95.670776 213.388290
v -79.547440 -138.892502 192.044434
v -67.649544 -176.776642 163.320358
v -53.151905 -207.867371 128.319977
v -36.611668 -230.969910 88.388336
v -18.664467 -245.196335 45.059975
v -27.096642 245.196320 40.552841
v -53.151928 230.969879 79.547348
v -77.164612 207.867447 115.484856
v -98.211914 176.776733 146.984344
v -115.484985 138.892593 172.835327
v -128.320023 95.670906 192.044373
v -136.223801 48.772633 203.873215
v -138.892609 0.000066 207.867340
v -136.223801 -48.772507 203.873215
v -128.320023 -95.670776 192.044388
v -115.484985 -138.892502 172.835419
v -98.211914 -176.776642 146.984436
v -77.164604 -207.867371 115.484932
v -53.151905 -230.969910 79.547401
v -27.096605 -245.196335 40.552906
v -34.487484 245.196320 34.487335
v -67.649574 230.969879 67.649429
v -98.211922 207.867401 98.211777
v -125.000046 176.776733 124.999901
v -146.984497 138.892593 146.984344
v -163.320404 95.670906 163.320297
v -173.380020 48.772621 173.379898
v -176.776749 0.000059 176.776611
v -173.380020 -48.772518 173.379898
v -163.320404 -95.670776 163.320312
v -146.984497 -138.892502 146.984436
v -125.000046 -176.776642 124.999992
v -98.211914 -207.867416 98.211853
v -67.649544 -230.969910 67.649498
v -34.487434 -245.196335 34.487408
v -40.552986 245.196320 27.096495
v -79.547478 230.969879 53.151783
v -115.485001 207.867401 77.164467
v -146.984497 176.776688 98.211761
v -172.835480 138.892593 115.484848
v -192.044479 95.670883 128.319916
v -203.873322 48.772621 136.223679
v -207.867462 0.000050 138.892471
v -203.873322 -48.772518 136.223679
v -192.044479 -95.670799 128.319931
v -172.835480 -138.892502 115.484894
v -146.984497 -176.776688 98.211853
v -115.484985 -207.867416 77.164543
v -79.547447 -230.969910 53.151882
v -40.552933 -245.196335 27.096579
v -45.060062 245.196320 18.664345
v -88.388420 230.969879 36.611542
v -128.320053 207.867401 53.151779
v -163.320419 176.776688 67.649391
v -192.044495 138.892548 79.547310
v -213.388382 95.670883 88.388252
v -226.531876 48.772610 93.832466
v -230.969940 0.000040 95.670776
v -226.531876 -48.772530 93.832466
v -213.388382 -95.670799 88.388313
v -192.044495 -138.892548 79.547356
v -163.320419 -176.776688 67.649483
v -128.320038 -207.867416 53.151855
v -88.388382 -230.969910 36.611645
v -45.060001 -245.196335 18.664442
v -47.835503 245.196320 9.514935
v -93.832642 230.969879 18.664339
v -136.223831 207.867401 27.096478
v -173.380035 176.776688 34.487312
v -203.873337 138.892548 40.552803
v -226.531891 95.670860 45.059895
v -240.484955 48.772598 47.835316
v -245.196365 0.000030 48.772491
v -240.484955 -48.772541 47.835339
v -226.531891 -95.670822 45.059956
v -203.873337 -138.892548 40.552872
v -173.380035 -176.776688 34.487381
v -136.223816 -207.867416 27.096558
v -93.832603 -230.969910 18.664438
v -47.835438 -245.196335 9.515037
v -48.772652 245.196320 -0.000137
v -95.670921 230.969879 -0.000132
v -138.892624 207.867401 -0.000125
v -176.776733 176.776688 -0.000120
v -207.867447 138.892548 -0.000115
v -230.969925 95.670860 -0.000090
v -245.196320 48.772587 -0.000109
v -250.000061 0.000019 -0.000094
v -245.196320 -48.772552 -0.000088
v -230.969925 -95.670822 -0.000036
v -207.867447 -138.892548 -0.000052
v -176.776733 -176.776688 -0.000040
v -138.892593 -207.867416 -0.000039
v -95.670883 -230.969910 -0.000024
v -48.772591 -245.196335 -0.000021
v -47.835499 245.196320 -9.515206
v -93.832634 230.969879 -18.664600
v -136.223831 207.867401 -27.096725
v -173.380020 176.776688 -34.487534
v -203.873322 138.892548 -40.553036
v -226.531891 95.670860 -45.060081
v -240.484924 48.772575 -47.835529
v -245.196365 0.000008 -48.772678
v -240.484924 -48.772564 -47.835506
v -226.531891 -95.670822 -45.060024
v -203.873322 -138.892548 -40.552967
v -173.380020 -176.776688 -34.487465
v -136.223801 -207.867416 -27.096636
v -93.832596 -230.969910 -18.664486
v -47.835438 -245.196335 -9.515082
v -45.060051 245.196320 -18.664619
v -88.388405 230.969879 -36.611805
v -128.320038 207.867401 -53.152020
v -163.320404 176.776688 -67.649635
v -192.044449 138.892548 -79.547516
v -213.388382 95.670837 -88.388435
v -226.531830 48.772564 -93.832642
v -230.969925 -0.000002 -95.670952
v -226.531830 -48.772575 -93.832642
v -213.388382 -95.670845 -88.388374
v -192.044449 -138.892548 -79.547470
v -163.320404 -176.776688 -67.649544
v -128.320007 -207.867416 -53.151928
v -88.388367 -230.969910 -36.611675
v -45.059998 -245.196335 -18.664480
v -40.552971 245.196320 -27.096764
v -79.547462 230.969879 -53.152039
v -115.484985 207.867401 -77.164703
v -146.984482 176.776688 -98.211990
v -172.835434 138.892502 -115.485039
v -192.044464 95.670837 -128.320038
v -203.873260 48.772552 -136.223816
v -207.867432 -0.000012 -138.892639
v -203.873260 -48.772587 -136.223816
v -192.044464 -95.670845 -128.320038
v -172.835434 -138.892593 -115.484993
v -146.984482 -176.776688 -98.211899
v -115.484955 -207.867416 -77.164604
v -79.547424 -230.969910 -53.151909
v -40.552925 -245.196335 -27.096617
v -34.487465 245.196320 -34.487598
v -67.649559 230.969879 -67.649658
v -98.211899 207.867401 -98.212006
v -125.000015 176.776642 -125.000114
v -146.984436 138.892502 -146.984558
v -163.320404 95.670815 -163.320419
v -173.379959 48.772552 -173.380020
v -176.776703 -0.000021 -176.776779
v -173.379959 -48.772587 -173.380020
v -163.320404 -95.670868 -163.320419
v -146.984436 -138.892593 -146.984467
v -125.000015 -176.776733 -125.000023
v -98.211876 -207.867416 -98.211899
v -67.649521 -230.969910 -67.649544
v -34.487427 -245.196335 -34.487442
v -27.096624 245.196320 -40.553097
v -53.151913 230.969879 -79.547554
v -77.164589 207.867355 -115.485062
v -98.211876 176.776642 -146.984558
v -115.484932 138.892502 -172.835526
v -128.320023 95.670815 -192.044495
v -136.223755 48.772541 -203.873322
v -138.892563 -0.000028 -207.867493
v -136.223755 -48.772598 -203.873322
v -128.320023 -95.670868 -192.044495
v -115.484932 -138.892593 -172.835434
v -98.211876 -176.776733 -146.984467
v -77.164566 -207.867462 -115.484962
v -53.151886 -230.969910 -79.547432
v -27.096598 -245.196335 -40.552940
v 0.000000 -250.000000 -0.000025
v -18.664478 245.196320 -45.060169
v -36.611675 230.969879 -88.388489
v -53.151897 207.867355 -128.320114
v -67.649506 176.776642 -163.320465
v -79.547394 138.892502 -192.044525
v -88.388367 95.670815 -213.388382
v -93.832535 48.772541 -226.531860
v -95.670853 -0.000033 -230.969955
v -93.832535 -48.772598 -226.531860
v -88.388367 -95.670868 -213.388382
v -79.547394 -138.892593 -192.044434
v -67.649506 -176.776733 -163.320374
v -53.151875 -207.867462 -128.319992
v -36.611652 -230.969910 -88.388367
v -18.664463 -245.196335 -45.060009
v -9.515067 245.196320 -47.835613
v -18.664476 230.969879 -93.832710
v -27.096607 207.867355 -136.223892
v -34.487415 176.776642 -173.380081
v -40.552891 138.892502 -203.873352
v -45.060005 95.670815 -226.531891
v -47.835403 48.772530 -240.484940
v -48.772564 -0.000037 -245.196381
v -47.835403 -48.772610 -240.484940
v -45.060005 -95.670868 -226.531891
v -40.552891 -138.892593 -203.873260
v -34.487415 -176.776733 -173.379990
v -27.096590 -207.867462 -136.223770
v -18.664461 -230.969910 -93.832588
v -9.515060 -245.196335 -47.835445
v 0.000002 245.196320 -48.772762
v -0.000010 230.969879 -95.670990
v -0.000006 207.867355 -138.892685
v 0.000006 176.776642 -176.776779
v 0.000022 138.892502 -207.867447
v -0.000016 95.670815 -230.969925
v 0.000022 48.772530 -245.196304
v 0.000025 -0.000038 -250.000046
v 0.000022 -48.772610 -245.196304
v -0.000016 -95.670868 -230.969925
v 0.000022 -138.892593 -207.867355
v 0.000006 -176.776733 -176.776688
v 0.000002 -207.867462 -138.892548
v -0.000001 -230.969910 -95.670868
v -0.000001 -245.196335 -48.772594
v 9.515070 245.196320 -47.835606
v 18.664454 230.969879 -93.832695
v 27.096592 207.867355 -136.223892
v 34.487431 176.776642 -173.380066
v 40.552933 138.892502 -203.873322
v 45.059975 95.670815 -226.531891
v 47.835438 48.772530 -240.484909
v 48.772610 -0.000037 -245.196350
v 47.835438 -48.772610 -240.484909
v 45.059975 -95.670868 -226.531891
v 40.552933 -138.892593 -203.873230
v 34.487431 -176.776733 -173.379974
v 27.096592 -207.867462 -136.223755
v 18.664455 -230.969910 -93.832573
v 9.515058 -245.196335 -47.835442
v 18.664478 245.196320 -45.060158
v 36.611649 230.969879 -88.388466
v 53.151882 207.867355 -128.320114
v 67.649513 176.776642 -163.320450
v 79.547409 138.892502 -192.044449
v 88.388329 95.670815 -213.388382
v 93.832565 48.772541 -226.531815
v 95.670891 -0.000033 -230.969910
v 93.832565 -48.772598 -226.531815
v 88.388329 -95.670868 -213.388382
v 79.547409 -138.892593 -192.044357
v 67.649513 -176.776733 -163.320358
v 53.151875 -207.867462 -128.319977
v 36.611645 -230.969910 -88.388344
v 18.664455 -245.196335 -45.059998
v 27.096619 245.196320 -40.553082
v 53.151878 230.969879 -79.547523
v 77.164574 207.867355 -115.485062
v 98.211868 176.776642 -146.984528
v 115.484924 138.892502 -172.835434
v 128.319977 95.670815 -192.044479
v 136.223770 48.772541 -203.873260
v 138.892593 -0.000028 -207.867432
v 136.223770 -48.772598 -203.873260
v 128.319977 -95.670868 -192.044479
v 115.484924 -138.892593 -172.835342
v 98.211868 -176.776733 -146.984436
v 77.164558 -207.867462 -115.484932
v 53.151867 -230.969910 -79.547401
v 27.096586 -245.196335 -40.552925
v 0.000058 250.000000 -0.000196
v 34.487453 245.196320 -34.487579
v 67.649513 230.969879 -67.649620
v 98.211876 207.867401 -98.211998
v 125.000000 176.776642 -125.000084
v 146.984421 138.892502 -146.984451
v 163.320343 95.670815 -163.320404
v 173.379944 48.772552 -173.379944
v 176.776718 -0.000021 -176.776703
v 173.379944 -48.772587 -173.379944
v 163.320343 -95.670868 -163.320404
v 146.984421 -138.892593 -146.984360
v 125.000000 -176.776733 -124.999992
v 98.211853 -207.867416 -98.211861
v 67.649498 -230.969910 -67.649506
v 34.487411 -245.196335 -34.487427
v 40.552952 245.196320 -27.096746
v 79.547409 230.969879 -53.152000
v 115.484947 207.867401 -77.164688
v 146.984436 176.776688 -98.211960
v 172.835373 138.892502 -115.484947
v 192.044418 95.670837 -128.320038
v 203.873230 48.772552 -136.223740
v 207.867416 -0.000012 -138.892563
v 203.873230 -48.772587 -136.223740
v 192.044418 -95.670845 -128.320038
v 172.835373 -138.892593 -115.484901
v 146.984436 -176.776688 -98.211868
v 115.484924 -207.867416 -77.164558
v 79.547394 -230.969910 -53.151863
v 40.552906 -245.196335 -27.096601
v 45.060024 245.196320 -18.664606
v 88.388336 230.969879 -36.611767
v 128.319992 207.867401 -53.151997
v 163.320358 176.776688 -67.649597
v 192.044357 138.892548 -79.547424
v 213.388336 95.670837 -88.388435
v 226.531784 48.772564 -93.832542
v 230.969879 -0.000002 -95.670868
v 226.531784 -48.772575 -93.832542
v 213.388336 -95.670845 -88.388390
v 192.044357 -138.892548 -79.547379
v 163.320358 -176.776688 -67.649506
v 128.319962 -207.867416 -53.151882
v 88.388313 -230.969910 -36.611637
v 45.059971 -245.196335 -18.664469
v 47.835464 245.196320 -9.515197
v 93.832550 230.969879 -18.664574
v 136.223785 207.867401 -27.096706
v 173.379974 176.776688 -34.487499
v 203.873199 138.892548 -40.552963
v 226.531845 95.670860 -45.060085
v 240.484848 48.772575 -47.835438
v 245.196304 0.000008 -48.772602
v 240.484848 -48.772564 -47.835415
v 226.531845 -95.670822 -45.060040
v 203.873199 -138.892548 -40.552895
v 173.379974 -176.776688 -34.487431
v 136.223755 -207.867416 -27.096603
v 93.832527 -230.969910 -18.664459
v 47.835411 -245.196335 -9.515078
v 48.772614 245.196320 -0.000134
v 95.670845 230.969879 -0.000123
v 138.892548 207.867401 -0.000117
v 176.776672 176.776688 -0.000087
v 207.867310 138.892548 -0.000066
v 230.969864 95.670860 -0.000101
v 245.196213 48.772587 -0.000035
v 249.999954 0.000019 -0.000035
v 245.196213 -48.772552 -0.000013
v 230.969864 -95.670822 -0.000059
v 207.867310 -138.892548 -0.000004
v 176.776672 -176.776688 -0.000006
v 138.892517 -207.867416 -0.000018
v 95.670815 -230.969910 -0.000011
v 48.772564 -245.196335 -0.000023
v 47.835461 245.196320 9.514931
v 93.832550 230.969879 18.664330
v 136.223770 207.867401 27.096470
v 173.379959 176.776688 34.487331
v 203.873169 138.892548 40.552822
v 226.531830 95.670860 45.059879
v 240.484802 48.772598 47.835365
v 245.196259 0.000030 48.772533
v 240.484802 -48.772541 47.835388
v 226.531830 -95.670822 45.059925
v 203.873169 -138.892548 40.552891
v 173.379959 -176.776688 34.487400
v 136.223740 -207.867416 27.096561
v 93.832520 -230.969910 18.664434
v 47.835411 -245.196335 9.515028
v 45.060020 245.196320 18.664331
v 88.388329 230.969879 36.611511
v 128.319962 207.867401 53.151756
v 163.320328 176.776688 67.649399
v 192.044312 138.892548 79.547302
v 213.388321 95.670883 88.388229
v 226.531708 48.772610 93.832474
v 230.969803 0.000040 95.670792
v 226.531708 -48.772530 93.832474
v 213.388321 -95.670799 88.388275
v 192.044312 -138.892548 79.547348
v 163.320328 -176.776688 67.649490
v 128.319931 -207.867416 53.151840
v 88.388298 -230.969910 36.611622
v 45.059971 -245.196335 18.664425
v 40.552944 245.196320 27.096470
v 79.547394 230.969879 53.151737
v 115.484909 207.867401 77.164429
v 146.984421 176.776688 98.211746
v 172.835312 138.892593 115.484802
v 192.044403 95.670883 128.319870
v 203.873138 48.772621 136.223648
v 207.867310 0.000050 138.892456
v 203.873138 -48.772518 136.223648
v 192.044403 -95.670799 128.319870
v 172.835312 -138.892502 115.484848
v 146.984421 -176.776688 98.211838
v 115.484879 -207.867416 77.164513
v 79.547363 -230.969910 53.151840
v 40.552902 -245.196335 27.096552
v 34.487442 245.196320 34.487301
v 67.649483 230.969879 67.649361
v 98.211830 207.867401 98.211723
v 124.999962 176.776733 124.999863
v 146.984329 138.892593 146.984268
v 163.320343 95.670906 163.320236
v 173.379837 48.772621 173.379807
v 176.776581 0.000059 176.776566
v 173.379837 -48.772518 173.379807
v 163.320343 -95.670776 163.320236
v 146.984329 -138.892502 146.984360
v 124.999962 -176.776642 124.999954
v 98.211807 -207.867416 98.211792
v 67.649467 -230.969910 67.649437
v 34.487408 -245.196335 34.487377
v 27.096607 245.196320 40.552799
v 53.151852 230.969879 79.547256
v 77.164528 207.867447 115.484779
v 98.211823 176.776733 146.984299
v 115.484825 138.892593 172.835220
v 128.319962 95.670906 192.044296
v 136.223648 48.772633 203.873077
v 138.892456 0.000066 207.867249
v 136.223648 -48.772507 203.873077
v 128.319962 -95.670776 192.044296
v 115.484825 -138.892502 172.835312
v 98.211823 -176.776642 146.984390
v 77.164513 -207.867371 115.484848
v 53.151844 -230.969910 79.547333
v 27.096581 -245.196335 40.552876
v 18.664465 245.196320 45.059875
v 36.611629 230.969879 88.388191
v 53.151848 207.867447 128.319809
v 67.649467 176.776733 163.320206
v 79.547302 138.892593 192.044189
v 88.388321 95.670906 213.388184
v 93.832451 48.772633 226.531616
v 95.670761 0.000071 230.969681
v 93.832451 -48.772507 226.531616
v 88.388321 -95.670776 213.388184
v 79.547302 -138.892502 192.044281
v 67.649467 -176.776642 163.320297
v 53.151833 -207.867371 128.319870
v 36.611622 -230.969910 88.388268
v 18.664448 -245.196335 45.059944
v 9.515057 245.196320 47.835316
v 18.664434 230.969879 93.832405
v 27.096560 207.867447 136.223587
v 34.487381 176.776733 173.379807
v 40.552830 138.892593 203.873016
v 45.059967 95.670906 226.531693
v 47.835335 48.772644 240.484665
v 48.772495 0.000075 245.196091
v 47.835335 -48.772495 240.484665
v 45.059967 -95.670776 226.531693
v 40.552830 -138.892502 203.873108
v 34.487381 -176.776642 173.379898
v 27.096550 -207.867371 136.223648
v 18.664431 -230.969910 93.832481
v 9.515051 -245.196335 47.835381
v -0.000016 -95.670776 230.969711
v -0.000068 -138.892502 207.867203
v -0.000038 -176.776642 176.776596
v -0.000019 -230.969910 95.670761
v -0.000004 -245.196335 48.772530
vn 0.0286 0.9565 -0.2902
vn 0.0975 -0.0975 -0.9904
vn 0.0097 -0.9951 -0.0980
vn 0.0097 0.9951 -0.0980
vn 0.0975 0.0975 -0.9904
vn 0.0976 0.0975 -0.9904
vn 0.0286 -0.9565 -0.2902
vn 0.0938 0.2890 -0.9527
vn 0.0464 -0.8810 -0.4709
vn 0.0865 0.4696 -0.8786
vn 0.0624 -0.7715 -0.6332
vn 0.0759 0.6326 -0.7708
vn 0.0759 -0.6326 -0.7708
vn 0.0624 0.7715 -0.6332
vn 0.0865 -0.4696 -0.8786
vn 0.0464 0.8810 -0.4709
vn 0.0938 -0.2890 -0.9527
vn 0.2563 -0.4696 -0.8448
vn 0.1374 0.8810 -0.4528
vn 0.2779 -0.2890 -0.9161
vn 0.0846 0.9565 -0.2790
vn 0.2889 -0.0976 -0.9524
vn 0.0286 -0.9951 -0.0942
vn 0.0286 0.9951 -0.0942
vn 0.2889 0.0975 -0.9524
vn 0.0846 -0.9565 -0.2790
vn 0.2779 0.2890 -0.9161
vn 0.1374 -0.8810 -0.4528
vn 0.2563 0.4696 -0.8448
vn 0.1847 -0.7715 -0.6088
vn 0.2248 0.6326 -0.7412
vn 0.2248 -0.6326 -0.7412
vn 0.1847 0.7715 -0.6088
vn 0.4513 0.2890 -0.8443
vn 0.2230 -0.8810 -0.4173
vn 0.4162 0.4696 -0.7786
vn 0.2999 -0.7715 -0.5611
vn 0.3651 0.6326 -0.6831
vn 0.3651 -0.6326 -0.6831
vn 0.2999 0.7715 -0.5611
vn 0.4162 -0.4696 -0.7786
vn 0.2230 0.8810 -0.4173
vn 0.2231 0.8810 -0.4173
vn 0.4513 -0.2890 -0.8443
vn 0.1374 0.9565 -0.2571
vn 0.4691 -0.0975 -0.8777
vn 0.0464 -0.9951 -0.0869
vn 0.0464 0.9951 -0.0869
vn 0.4691 0.0975 -0.8777
vn 0.1374 -0.9565 -0.2571
vn 0.3002 0.8810 -0.3658
vn 0.6073 -0.2890 -0.7400
vn 0.1850 0.9565 -0.2254
vn 0.6314 -0.0976 -0.7693
vn 0.0625 -0.9951 -0.0761
vn 0.0625 0.9951 -0.0761
vn 0.6314 0.0975 -0.7693
vn 0.6314 0.0976 -0.7693
vn 0.1850 -0.9565 -0.2254
vn 0.6073 0.2890 -0.7400
vn 0.3002 -0.8810 -0.3658
vn 0.5601 0.4696 -0.6825
vn 0.4036 -0.7715 -0.4918
vn 0.4913 0.6326 -0.5987
vn 0.4913 -0.6326 -0.5987
vn 0.4036 0.7715 -0.4918
vn 0.5601 -0.4696 -0.6825
vn 0.6825 0.4696 -0.5601
vn 0.4918 -0.7715 -0.4036
vn 0.5987 0.6326 -0.4913
vn 0.5987 -0.6326 -0.4913
vn 0.4918 0.7715 -0.4036
vn 0.6825 -0.4696 -0.5601
vn 0.3658 0.8810 -0.3002
vn 0.7400 -0.2890 -0.6073
vn 0.2254 0.9565 -0.1850
vn 0.7693 -0.0976 -0.6314
vn 0.0761 -0.9951 -0.0625
vn 0.0761 0.9951 -0.0625
vn 0.7693 0.0976 -0.6314
vn 0.7693 0.0975 -0.6314
vn 0.2254 -0.9565 -0.1850
vn 0.7400 0.2890 -0.6073
vn 0.3658 -0.8810 -0.3002
vn 0.2571 0.9565 -0.1374
vn 0.8777 -0.0975 -0.4691
vn 0.8777 -0.0976 -0.4691
vn 0.0869 -0.9951 -0.0464
vn 0.0869 0.9951 -0.0464
vn 0.8777 0.0976 -0.4691
vn 0.8777 0.0975 -0.4691
vn 0.2571 -0.9565 -0.1374
vn 0.8443 0.2890 -0.4513
vn 0.4173 -0.8810 -0.2230
vn 0.7786 0.4696 -0.4162
vn 0.5611 -0.7715 -0.2999
vn 0.6831 0.6326 -0.3651
vn 0.6831 -0.6326 -0.3651
vn 0.5611 0.7715 -0.2999
vn 0.7786 -0.4696 -0.4162
vn 0.4173 0.8810 -0.2230
vn 0.4173 0.8810 -0.2231
vn 0.8443 -0.2890 -0.4513
vn 0.6088 -0.7715 -0.1847
vn 0.7412 0.6326 -0.2248
vn 0.7412 -0.6326 -0.2248
vn 0.6088 0.7715 -0.1847
vn 0.8448 -0.4696 -0.2563
vn 0.4528 0.8810 -0.1374
vn 0.9161 -0.2890 -0.2779
vn 0.2790 0.9565 -0.0846
vn 0.9524 -0.0976 -0.2889
vn 0.0942 -0.9951 -0.0286
vn 0.0942 0.9951 -0.0286
vn 0.9524 0.0976 -0.2889
vn 0.9524 0.0975 -0.2889
vn 0.2790 -0.9565 -0.0846
vn 0.9161 0.2890 -0.2779
vn 0.4528 -0.8810 -0.1374
vn 0.8448 0.4696 -0.2563
vn 0.9904 -0.0976 -0.0975
vn 0.9904 -0.0975 -0.0975
vn 0.0980 -0.9951 -0.0097
vn 0.0980 0.9951 -0.0097
vn 0.9904 0.0976 -0.0975
vn 0.2902 -0.9565 -0.0286
vn 0.9527 0.2890 -0.0938
vn 0.4709 -0.8810 -0.0464
vn 0.8786 0.4696 -0.0865
vn 0.6332 -0.7715 -0.0624
vn 0.7708 0.6326 -0.0759
vn 0.7708 -0.6326 -0.0759
vn 0.6332 0.7715 -0.0624
vn 0.8786 -0.4696 -0.0865
vn 0.4709 0.8810 -0.0464
vn 0.9527 -0.2890 -0.0938
vn 0.2902 0.9565 -0.0286
vn 0.7708 0.6326 0.0759
vn 0.7708 -0.6326 0.0759
vn 0.6332 0.7715 0.0624
vn 0.8786 -0.4696 0.0865
vn 0.4709 0.8810 0.0464
vn 0.9527 -0.2890 0.0938
vn 0.2902 0.9565 0.0286
vn 0.9904 -0.0976 0.0976
vn 0.9904 -0.0976 0.0975
vn 0.0980 -0.9951 0.0097
vn 0.0980 0.9951 0.0097
vn 0.9904 0.0976 0.0975
vn 0.2902 -0.9565 0.0286
vn 0.9527 0.2890 0.0938
vn 0.4709 -0.8810 0.0464
vn 0.8786 0.4696 0.0865
vn 0.6332 -0.7715 0.0624
vn 0.0942 -0.9951 0.0286
vn 0.0942 0.9951 0.0286
vn 0.9524 0.0976 0.2889
vn 0.2790 -0.9565 0.0846
vn 0.9161 0.2890 0.2779
vn 0.4528 -0.8810 0.1374
vn 0.8448 0.4696 0.2563
vn 0.6088 -0.7715 0.1847
vn 0.7412 0.6326 0.2248
vn 0.7412 -0.6326 0.2248
vn 0.6088 0.7715 0.1847
vn 0.8448 -0.4696 0.2563
vn 0.4528 0.8810 0.1374
vn 0.9161 -0.2890 0.2779
vn 0.2790 0.9565 0.0846
vn 0.9524 -0.0976 0.2889
vn 0.6831 -0.6326 0.3651
vn 0.5611 0.7715 0.2999
vn 0.7786 -0.4696 0.4162
vn 0.4173 0.8810 0.2231
vn 0.4173 0.8810 0.2230
vn 0.8443 -0.2890 0.4513
vn 0.2571 0.9565 0.1374
vn 0.8777 -0.0976 0.4691
vn 0.0869 -0.9951 0.0464
vn 0.0869 0.9951 0.0464
vn 0.8777 0.0976 0.4691
vn 0.2571 -0.9565 0.1374
vn 0.8443 0.2890 0.4513
vn 0.4173 -0.8810 0.2230
vn 0.7786 0.4696 0.4162
vn 0.5611 -0.7715 0.2999
vn 0.6831 0.6326 0.3651
vn 0.7693 0.0976 0.6314
vn 0.2254 -0.9565 0.1850
vn 0.7400 0.2890 0.6073
vn 0.3658 -0.8810 0.3002
vn 0.6825 0.4696 0.5601
vn 0.4918 -0.7715 0.4036
vn 0.5987 0.6326 0.4913
vn 0.5987 -0.6326 0.4913
vn 0.4918 0.7715 0.4036
vn 0.6825 -0.4696 0.5601
vn 0.3658 0.8810 0.3002
vn 0.7400 -0.2890 0.6073
vn 0.2254 0.9565 0.1850
vn 0.7693 -0.0976 0.6314
vn 0.0761 -0.9951 0.0625
vn 0.0761 0.9951 0.0625
vn 0.4036 0.7715 0.4918
vn 0.5601 -0.4696 0.6825
vn 0.3002 0.8810 0.3658
vn 0.6073 -0.2890 0.7400
vn 0.1850 0.9565 0.2254
vn 0.6314 -0.0976 0.7693
vn 0.0625 -0.9951 0.0761
vn 0.0625 0.9951 0.0761
vn 0.6314 0.0976 0.7693
vn 0.1850 -0.9565 0.2254
vn 0.6073 0.2890 0.7400
vn 0.3002 -0.8810 0.3658
vn 0.5601 0.4696 0.6825
vn 0.4036 -0.7715 0.4918
vn 0.4913 0.6326 0.5987
vn 0.4913 -0.6326 0.5987
vn 0.4513 0.2890 0.8443
vn 0.2231 -0.8810 0.4173
vn 0.4162 0.4696 0.7786
vn 0.2999 -0.7715 0.5611
vn 0.3651 0.6326 0.6831
vn 0.3651 -0.6326 0.6831
vn 0.2999 0.7715 0.5611
vn 0.4162 -0.4696 0.7786
vn 0.2230 0.8810 0.4173
vn 0.4513 -0.2890 0.8443
vn 0.1374 0.9565 0.2571
vn 0.1374 0.9566 0.2571
vn 0.4691 -0.0976 0.8777
vn 0.0464 -0.9951 0.0869
vn 0.0464 0.9951 0.0869
vn 0.4691 0.0976 0.8777
vn 0.1374 -0.9565 0.2571
vn 0.1374 0.8810 0.4528
vn 0.2779 -0.2890 0.9161
vn 0.0846 0.9565 0.2790
vn 0.2889 -0.0976 0.9524
vn 0.0286 -0.9951 0.0942
vn 0.0286 0.9951 0.0942
vn 0.2889 0.0976 0.9524
vn 0.0846 -0.9565 0.2790
vn 0.2779 0.2890 0.9161
vn 0.1374 -0.8810 0.4528
vn 0.2563 0.4696 0.8448
vn 0.1847 -0.7715 0.6088
vn 0.2248 0.6326 0.7412
vn 0.2248 -0.6326 0.7412
vn 0.1847 0.7715 0.6088
vn 0.2563 -0.4696 0.8448
vn 0.0464 -0.8810 0.4709
vn 0.0865 0.4696 0.8786
vn 0.0624 -0.7715 0.6332
vn 0.0759 0.6326 0.7708
vn 0.0759 -0.6326 0.7708
vn 0.0624 0.7715 0.6332
vn 0.0865 -0.4696 0.8786
vn 0.0464 0.8810 0.4709
vn 0.0938 -0.2890 0.9527
vn 0.0286 0.9565 0.2902
vn 0.0975 -0.0976 0.9904
vn 0.0097 -0.9951 0.0980
vn 0.0097 0.9951 0.0980
vn 0.0975 0.0976 0.9904
vn 0.0286 -0.9565 0.2902
vn 0.0938 0.2890 0.9527
vn -0.0938 -0.2890 0.9527
vn -0.0286 0.9565 0.2902
vn -0.0976 -0.0976 0.9904
vn -0.0975 -0.0976 0.9904
vn -0.0097 -0.9951 0.0980
vn -0.0097 0.9951 0.0980
vn -0.0976 0.0976 0.9904
vn -0.0286 -0.9565 0.2902
vn -0.0938 0.2890 0.9527
vn -0.0464 -0.8810 0.4709
vn -0.0865 0.4696 0.8786
vn -0.0624 -0.7715 0.6332
vn -0.0759 0.6326 0.7708
vn -0.0759 -0.6326 0.7708
vn -0.0624 0.7715 0.6332
vn -0.0865 -0.4696 0.8786
vn -0.0464 0.8810 0.4709
vn -0.2563 0.4696 0.8448
vn -0.1847 -0.7715 0.6088
vn -0.2248 0.6326 0.7412
vn -0.2248 -0.6326 0.7412
vn -0.1847 0.7715 0.6088
vn -0.2563 -0.4696 0.8448
vn -0.1374 0.8810 0.4528
vn -0.2779 -0.2890 0.9161
vn -0.0846 0.9565 0.2790
vn -0.2889 -0.0976 0.9524
vn -0.0286 -0.9951 0.0942
vn -0.0286 0.9951 0.0942
vn -0.2889 0.0976 0.9524
vn -0.0846 -0.9565 0.2790
vn -0.2779 0.2890 0.9161
vn -0.1374 -0.8810 0.4528
vn -0.1374 0.9565 0.2571
vn -0.4691 -0.0976 0.8777
vn -0.0464 -0.9951 0.0869
vn -0.0464 0.9951 0.0869
vn -0.4691 0.0976 0.8777
vn -0.1374 -0.9565 0.2571
vn -0.4513 0.2890 0.8443
vn -0.2231 -0.8810 0.4173
vn -0.2230 -0.8810 0.4173
vn -0.4162 0.4696 0.7786
vn -0.2999 -0.7715 0.5611
vn -0.3651 0.6326 0.6831
vn -0.3651 -0.6326 0.6831
vn -0.2999 0.7715 0.5611
vn -0.4162 -0.4696 0.7786
vn -0.2230 0.8810 0.4173
vn -0.4513 -0.2890 0.8443
vn -0.4036 -0.7715 0.4918
vn -0.4913 0.6326 0.5987
vn -0.4913 -0.6326 0.5987
vn -0.4036 0.7715 0.4918
vn -0.5601 -0.4696 0.6825
vn -0.3002 0.8810 0.3658
vn -0.6073 -0.2890 0.7400
vn -0.1850 0.9565 0.2254
vn -0.6314 -0.0976 0.7693
vn -0.0625 -0.9951 0.0761
vn -0.0625 0.9951 0.0761
vn -0.6314 0.0976 0.7693
vn -0.1850 -0.9565 0.2254
vn -0.6073 0.2890 0.7400
vn -0.3002 -0.8810 0.3658
vn -0.5601 0.4696 0.6825
vn -0.7693 -0.0976 0.6314
vn -0.0761 -0.9951 0.0625
vn -0.0761 0.9951 0.0625
vn -0.7693 0.0976 0.6314
vn -0.2254 -0.9565 0.1850
vn -0.7400 0.2890 0.6073
vn -0.3658 -0.8810 0.3002
vn -0.6825 0.4696 0.5601
vn -0.4918 -0.7715 0.4036
vn -0.5987 0.6326 0.4913
vn -0.5987 -0.6326 0.4913
vn -0.4918 0.7715 0.4036
vn -0.6825 -0.4696 0.5601
vn -0.3658 0.8810 0.3002
vn -0.7400 -0.2890 0.6073
vn -0.2254 0.9565 0.1850
vn -0.6831 0.6326 0.3651
vn -0.6831 -0.6326 0.3651
vn -0.5611 0.7715 0.2999
vn -0.7786 -0.4696 0.4162
vn -0.4173 0.8810 0.2230
vn -0.4173 0.8810 0.2231
vn -0.8443 -0.2890 0.4513
vn -0.2571 0.9565 0.1374
vn -0.8777 -0.0976 0.4691
vn -0.0869 -0.9951 0.0464
vn -0.0869 0.9951 0.0464
vn -0.8777 0.0976 0.4691
vn -0.2571 -0.9565 0.1374
vn -0.8443 0.2890 0.4513
vn -0.4173 -0.8810 0.2231
vn -0.4173 -0.8810 0.2230
vn -0.7786 0.4696 0.4162
vn -0.5611 -0.7715 0.2999
vn -0.0942 0.9951 0.0286
vn -0.9524 0.0976 0.2889
vn -0.2790 -0.9565 0.0846
vn -0.9161 0.2890 0.2779
vn -0.4528 -0.8810 0.1374
vn -0.8448 0.4696 0.2563
vn -0.6088 -0.7715 0.1847
vn -0.7412 0.6326 0.2248
vn -0.7412 -0.6326 0.2248
vn -0.6088 0.7715 0.1847
vn -0.8448 -0.4696 0.2563
vn -0.4528 0.8810 0.1374
vn -0.9161 -0.2890 0.2779
vn -0.2790 0.9565 0.0846
vn -0.9524 -0.0976 0.2889
vn -0.0942 -0.9951 0.0286
vn -0.6332 0.7715 0.0624
vn -0.8786 -0.4696 0.0865
vn -0.4709 0.8810 0.0464
vn -0.9527 -0.2890 0.0938
vn -0.2902 0.9565 0.0286
vn -0.9904 -0.0976 0.0975
vn -0.0980 -0.9951 0.0097
vn -0.0980 0.9951 0.0097
vn -0.9904 0.0976 0.0975
vn -0.2902 -0.9565 0.0286
vn -0.9527 0.2890 0.0938
vn -0.4709 -0.8810 0.0464
vn -0.8786 0.4696 0.0865
vn -0.6332 -0.7715 0.0624
vn -0.7708 0.6326 0.0759
vn -0.7708 -0.6326 0.0759
vn -0.2902 -0.9565 -0.0286
vn -0.9527 0.2890 -0.0938
vn -0.4709 -0.8810 -0.0464
vn -0.8786 0.4696 -0.0865
vn -0.6332 -0.7715 -0.0624
vn -0.7708 0.6326 -0.0759
vn -0.7708 -0.6326 -0.0759
vn -0.6332 0.7715 -0.0624
vn -0.8786 -0.4696 -0.0865
vn -0.4709 0.8810 -0.0464
vn -0.9527 -0.2890 -0.0938
vn -0.2902 0.9565 -0.0286
vn -0.9904 -0.0976 -0.0976
vn -0.9904 -0.0976 -0.0975
vn -0.0980 -0.9951 -0.0097
vn -0.0980 0.9951 -0.0097
vn -0.9904 0.0976 -0.0976
vn -0.8448 -0.4696 -0.2563
vn -0.4528 0.8810 -0.1374
vn -0.9161 -0.2890 -0.2779
vn -0.2790 0.9565 -0.0846
vn -0.9524 -0.0976 -0.2889
vn -0.0942 -0.9951 -0.0286
vn -0.0942 0.9951 -0.0286
vn -0.9524 0.0976 -0.2889
vn -0.2790 -0.9565 -0.0846
vn -0.9161 0.2890 -0.2779
vn -0.4528 -0.8810 -0.1374
vn -0.8448 0.4696 -0.2563
vn -0.6088 -0.7715 -0.1847
vn -0.7412 0.6326 -0.2248
vn -0.7412 -0.6326 -0.2248
vn -0.6088 0.7715 -0.1847
vn -0.8443 0.2890 -0.4513
vn -0.4173 -0.8810 -0.2230
vn -0.7786 0.4696 -0.4162
vn -0.5611 -0.7715 -0.2999
vn -0.6831 0.6326 -0.3651
vn -0.6831 -0.6326 -0.3651
vn -0.5611 0.7715 -0.2999
vn -0.7786 -0.4696 -0.4162
vn -0.4173 0.8810 -0.2231
vn -0.8443 -0.2890 -0.4513
vn -0.2571 0.9565 -0.1374
vn -0.8777 -0.0976 -0.4691
vn -0.0869 -0.9951 -0.0464
vn -0.0869 0.9951 -0.0464
vn -0.8777 0.0976 -0.4691
vn -0.2571 -0.9565 -0.1374
vn -0.3658 0.8810 -0.3002
vn -0.7400 -0.2890 -0.6073
vn -0.2254 0.9565 -0.1850
vn -0.7693 -0.0976 -0.6314
vn -0.0761 -0.9951 -0.0625
vn -0.0761 0.9951 -0.0625
vn -0.7693 0.0976 -0.6314
vn -0.2254 -0.9565 -0.1850
vn -0.7400 0.2890 -0.6073
vn -0.3658 -0.8810 -0.3002
vn -0.6825 0.4696 -0.5601
vn -0.4918 -0.7715 -0.4036
vn -0.5987 0.6326 -0.4913
vn -0.5987 -0.6326 -0.4913
vn -0.4918 0.7715 -0.4036
vn -0.6825 -0.4696 -0.5601
vn -0.3002 -0.8810 -0.3658
vn -0.5601 0.4696 -0.6825
vn -0.4036 -0.7715 -0.4918
vn -0.4913 0.6326 -0.5987
vn -0.4913 -0.6326 -0.5987
vn -0.4036 0.7715 -0.4918
vn -0.5601 -0.4696 -0.6825
vn -0.3002 0.8810 -0.3658
vn -0.6073 -0.2890 -0.7400
vn -0.1850 0.9565 -0.2254
vn -0.6314 -0.0976 -0.7693
vn -0.0625 -0.9951 -0.0761
vn -0.0625 0.9951 -0.0761
vn -0.6314 0.0976 -0.7693
vn -0.1850 -0.9565 -0.2254
vn -0.6073 0.2890 -0.7400
vn -0.4513 -0.2890 -0.8443
vn -0.1374 0.9565 -0.2571
vn -0.4691 -0.0976 -0.8777
vn -0.0464 -0.9951 -0.0869
vn -0.0464 0.9951 -0.0869
vn -0.4691 0.0976 -0.8777
vn -0.1374 -0.9565 -0.2571
vn -0.4513 0.2890 -0.8443
vn -0.2230 -0.8810 -0.4173
vn -0.4162 0.4696 -0.7786
vn -0.2999 -0.7715 -0.5611
vn -0.3651 0.6326 -0.6831
vn -0.3651 -0.6326 -0.6831
vn -0.2999 0.7715 -0.5611
vn -0.4162 -0.4696 -0.7786
vn -0.2231 0.8810 -0.4173
vn -0.2563 0.4696 -0.8448
vn -0.1847 -0.7715 -0.6088
vn -0.2248 0.6326 -0.7412
vn -0.2248 -0.6326 -0.7412
vn -0.1847 0.7715 -0.6088
vn -0.2563 -0.4696 -0.8448
vn -0.1374 0.8810 -0.4528
vn -0.2779 -0.2890 -0.9161
vn -0.0846 0.9565 -0.2790
vn -0.2889 -0.0976 -0.9524
vn -0.0286 -0.9951 -0.0942
vn -0.0286 0.9951 -0.0942
vn -0.2889 0.0976 -0.9524
vn -0.0846 -0.9565 -0.2790
vn -0.2779 0.2890 -0.9161
vn -0.1374 -0.8810 -0.4528
vn -0.0286 0.9565 -0.2902
vn -0.0976 -0.0976 -0.9904
vn -0.0097 -0.9951 -0.0980
vn -0.0097 0.9951 -0.0980
vn -0.0976 0.0975 -0.9904
vn -0.0976 0.0976 -0.9904
vn -0.0286 -0.9565 -0.2902
vn -0.0938 0.2890 -0.9527
vn -0.0464 -0.8810 -0.4709
vn -0.0865 0.4696 -0.8786
vn -0.0624 -0.7715 -0.6332
vn -0.0759 0.6326 -0.7708
vn -0.0759 -0.6326 -0.7708
vn -0.0624 0.7715 -0.6332
vn -0.0865 -0.4696 -0.8786
vn -0.0464 0.8810 -0.4709
vn -0.0938 -0.2890 -0.9527
vn 0.0976 -0.0976 -0.9904
vn 0.2889 -0.0975 -0.9524
vn 0.6314 -0.0975 -0.7693
vn -0.1374 0.9566 0.2571
vn -0.0976 -0.0975 -0.9904
vt 0.718750 0.062500
vt 0.750000 0.125000
vt 0.750000 0.062500
vt 0.718750 0.500000
vt 0.750000 0.562500
vt 0.750000 0.500000
vt 0.750000 0.937500
vt 0.718750 0.937500
vt 0.734375 1.000000
vt 0.734375 0.000000
vt 0.718750 0.437500
vt 0.750000 0.437500
vt 0.750000 0.875000
vt 0.718750 0.375000
vt 0.750000 0.375000
vt 0.750000 0.812500
vt 0.718750 0.875000
vt 0.718750 0.312500
vt 0.750000 0.312500
vt 0.718750 0.750000
vt 0.750000 0.750000
vt 0.718750 0.250000
vt 0.750000 0.250000
vt 0.718750 0.687500
vt 0.750000 0.687500
vt 0.718750 0.187500
vt 0.750000 0.187500
vt 0.750000 0.625000
vt 0.718750 0.125000
vt 0.718750 0.562500
vt 0.687500 0.625000
vt 0.718750 0.625000
vt 0.687500 0.125000
vt 0.687500 0.062500
vt 0.687500 0.500000
vt 0.687500 0.937500
vt 0.703125 1.000000
vt 0.703125 0.000000
vt 0.687500 0.437500
vt 0.687500 0.875000
vt 0.687500 0.812500
vt 0.718750 0.812500
vt 0.687500 0.312500
vt 0.687500 0.750000
vt 0.687500 0.687500
vt 0.687500 0.187500
vt 0.656250 0.375000
vt 0.687500 0.375000
vt 0.656250 0.812500
vt 0.656250 0.250000
vt 0.687500 0.250000
vt 0.656250 0.687500
vt 0.656250 0.187500
vt 0.656250 0.625000
vt 0.656250 0.125000
vt 0.687500 0.562500
vt 0.656250 0.062500
vt 0.656250 0.500000
vt 0.656250 0.937500
vt 0.671875 1.000000
vt 0.671875 0.000000
vt 0.656250 0.437500
vt 0.656250 0.875000
vt 0.625000 0.125000
vt 0.625000 0.562500
vt 0.656250 0.562500
vt 0.625000 0.937500
vt 0.640625 1.000000
vt 0.640625 0.000000
vt 0.625000 0.062500
vt 0.625000 0.437500
vt 0.625000 0.875000
vt 0.625000 0.812500
vt 0.656250 0.312500
vt 0.625000 0.375000
vt 0.625000 0.750000
vt 0.656250 0.750000
vt 0.625000 0.250000
vt 0.625000 0.687500
vt 0.625000 0.187500
vt 0.625000 0.625000
vt 0.625000 0.312500
vt 0.593750 0.375000
vt 0.593750 0.750000
vt 0.593750 0.250000
vt 0.593750 0.625000
vt 0.593750 0.125000
vt 0.593750 0.562500
vt 0.593750 0.062500
vt 0.625000 0.500000
vt 0.593750 0.937500
vt 0.609375 1.000000
vt 0.609375 0.000000
vt 0.593750 0.437500
vt 0.593750 0.875000
vt 0.593750 0.812500
vt 0.562500 0.125000
vt 0.562500 0.500000
vt 0.593750 0.500000
vt 0.562500 0.937500
vt 0.578125 1.000000
vt 0.578125 0.000000
vt 0.562500 0.062500
vt 0.562500 0.437500
vt 0.562500 0.875000
vt 0.562500 0.375000
vt 0.562500 0.812500
vt 0.593750 0.312500
vt 0.562500 0.312500
vt 0.562500 0.687500
vt 0.593750 0.687500
vt 0.562500 0.187500
vt 0.593750 0.187500
vt 0.562500 0.625000
vt 0.562500 0.750000
vt 0.531250 0.812500
vt 0.531250 0.250000
vt 0.562500 0.250000
vt 0.531250 0.687500
vt 0.531250 0.187500
vt 0.531250 0.625000
vt 0.531250 0.125000
vt 0.562500 0.562500
vt 0.531250 0.062500
vt 0.531250 0.500000
vt 0.531250 0.937500
vt 0.546875 1.000000
vt 0.546875 0.000000
vt 0.531250 0.437500
vt 0.531250 0.875000
vt 0.531250 0.375000
vt 0.500000 0.500000
vt 0.531250 0.562500
vt 0.500000 0.937500
vt 0.515625 1.000000
vt 0.515625 0.000000
vt 0.500000 0.062500
vt 0.500000 0.437500
vt 0.500000 0.875000
vt 0.500000 0.375000
vt 0.500000 0.812500
vt 0.531250 0.312500
vt 0.500000 0.750000
vt 0.531250 0.750000
vt 0.500000 0.250000
vt 0.500000 0.687500
vt 0.500000 0.625000
vt 0.500000 0.187500
vt 0.468750 0.250000
vt 0.500000 0.312500
vt 0.468750 0.750000
vt 0.468750 0.187500
vt 0.468750 0.625000
vt 0.468750 0.125000
vt 0.500000 0.125000
vt 0.500000 0.562500
vt 0.468750 0.500000
vt 0.468750 0.937500
vt 0.484374 1.000000
vt 0.484375 0.000000
vt 0.468750 0.062500
vt 0.468750 0.437500
vt 0.468750 0.875000
vt 0.468750 0.375000
vt 0.468750 0.812500
vt 0.437500 0.937500
vt 0.453124 1.000000
vt 0.453125 0.000000
vt 0.437500 0.062500
vt 0.437500 0.437500
vt 0.437500 0.875000
vt 0.437500 0.375000
vt 0.468750 0.312500
vt 0.437500 0.750000
vt 0.437500 0.250000
vt 0.468750 0.687500
vt 0.437500 0.187500
vt 0.437500 0.625000
vt 0.437500 0.125000
vt 0.468750 0.562500
vt 0.437500 0.500000
vt 0.437500 0.687500
vt 0.406250 0.750000
vt 0.406250 0.250000
vt 0.406250 0.625000
vt 0.406250 0.125000
vt 0.437500 0.562500
vt 0.406250 0.500000
vt 0.406250 0.937500
vt 0.421874 1.000000
vt 0.421875 0.000000
vt 0.406250 0.062500
vt 0.406250 0.875000
vt 0.406250 0.375000
vt 0.406250 0.812500
vt 0.437500 0.812500
vt 0.437500 0.312500
vt 0.375000 0.437500
vt 0.406250 0.437500
vt 0.375000 0.875000
vt 0.375000 0.375000
vt 0.406250 0.312500
vt 0.375000 0.750000
vt 0.375000 0.250000
vt 0.375000 0.687500
vt 0.406250 0.687500
vt 0.406250 0.187500
vt 0.375000 0.625000
vt 0.375000 0.125000
vt 0.406250 0.562500
vt 0.375000 0.062500
vt 0.375000 0.500000
vt 0.375000 0.937500
vt 0.390625 1.000000
vt 0.390625 0.000000
vt 0.375000 0.187500
vt 0.343750 0.250000
vt 0.343750 0.625000
vt 0.343750 0.187500
vt 0.375000 0.562500
vt 0.343750 0.125000
vt 0.343750 0.500000
vt 0.343750 0.937500
vt 0.359375 1.000000
vt 0.359375 0.000000
vt 0.343750 0.062500
vt 0.343750 0.875000
vt 0.343750 0.375000
vt 0.343750 0.812500
vt 0.375000 0.812500
vt 0.375000 0.312500
vt 0.343750 0.750000
vt 0.312500 0.375000
vt 0.343750 0.437500
vt 0.312500 0.812500
vt 0.343750 0.312500
vt 0.312500 0.750000
vt 0.312500 0.250000
vt 0.312500 0.687500
vt 0.343750 0.687500
vt 0.312500 0.187500
vt 0.312500 0.625000
vt 0.343750 0.562500
vt 0.312500 0.062500
vt 0.312500 0.500000
vt 0.312500 0.937500
vt 0.328125 1.000000
vt 0.328125 0.000000
vt 0.312500 0.437500
vt 0.312500 0.875000
vt 0.281250 0.125000
vt 0.312500 0.125000
vt 0.312500 0.562500
vt 0.281250 0.625000
vt 0.281250 0.062500
vt 0.281250 0.500000
vt 0.281250 0.937500
vt 0.296875 1.000000
vt 0.296875 0.000000
vt 0.281250 0.437500
vt 0.281250 0.875000
vt 0.281250 0.375000
vt 0.281250 0.812500
vt 0.312500 0.312500
vt 0.281250 0.250000
vt 0.281250 0.687500
vt 0.281250 0.187500
vt 0.250000 0.812500
vt 0.281250 0.312500
vt 0.250000 0.375000
vt 0.281250 0.750000
vt 0.250000 0.250000
vt 0.250000 0.750000
vt 0.250000 0.625000
vt 0.250000 0.187500
vt 0.281250 0.562500
vt 0.250000 0.125000
vt 0.250000 0.500000
vt 0.250000 0.937500
vt 0.265625 1.000000
vt 0.265625 0.000000
vt 0.250000 0.062500
vt 0.250000 0.437500
vt 0.250000 0.875000
vt 0.250000 0.562500
vt 0.218750 0.625000
vt 0.218750 0.125000
vt 0.218750 0.500000
vt 0.218750 0.937500
vt 0.234375 1.000000
vt 0.234375 0.000000
vt 0.218750 0.062500
vt 0.218750 0.437500
vt 0.218750 0.875000
vt 0.218750 0.375000
vt 0.218750 0.812500
vt 0.250000 0.312500
vt 0.218750 0.250000
vt 0.250000 0.687500
vt 0.218750 0.750000
vt 0.218750 0.187500
vt 0.218750 0.312500
vt 0.187500 0.375000
vt 0.187500 0.812500
vt 0.187500 0.250000
vt 0.187500 0.687500
vt 0.218750 0.687500
vt 0.187500 0.187500
vt 0.187500 0.625000
vt 0.187500 0.125000
vt 0.218750 0.562500
vt 0.187500 0.062500
vt 0.187500 0.562500
vt 0.187500 0.937500
vt 0.203125 1.000000
vt 0.203125 0.000000
vt 0.187500 0.437500
vt 0.187500 0.875000
vt 0.156250 0.125000
vt 0.156250 0.500000
vt 0.187500 0.500000
vt 0.156250 0.937500
vt 0.171875 1.000000
vt 0.171875 0.000000
vt 0.156250 0.062500
vt 0.156250 0.437500
vt 0.156250 0.875000
vt 0.156250 0.375000
vt 0.156250 0.812500
vt 0.187500 0.312500
vt 0.156250 0.750000
vt 0.187500 0.750000
vt 0.156250 0.250000
vt 0.156250 0.625000
vt 0.125000 0.812500
vt 0.125000 0.250000
vt 0.156250 0.312500
vt 0.156250 0.687500
vt 0.125000 0.750000
vt 0.125000 0.187500
vt 0.156250 0.187500
vt 0.125000 0.625000
vt 0.156250 0.562500
vt 0.125000 0.062500
vt 0.125000 0.562500
vt 0.125000 0.937500
vt 0.140625 1.000000
vt 0.140625 0.000000
vt 0.125000 0.437500
vt 0.125000 0.875000
vt 0.125000 0.375000
vt 0.093750 0.500000
vt 0.125000 0.500000
vt 0.093750 0.937500
vt 0.109375 1.000000
vt 0.109375 0.000000
vt 0.093750 0.062500
vt 0.093750 0.437500
vt 0.093750 0.375000
vt 0.093750 0.812500
vt 0.125000 0.312500
vt 0.093750 0.250000
vt 0.125000 0.687500
vt 0.093750 0.750000
vt 0.093750 0.187500
vt 0.093750 0.625000
vt 0.125000 0.125000
vt 0.062500 0.250000
vt 0.093750 0.312500
vt 0.093750 0.687500
vt 0.062500 0.750000
vt 0.062500 0.187500
vt 0.062500 0.625000
vt 0.093750 0.125000
vt 0.093750 0.562500
vt 0.062500 0.062500
vt 0.062500 0.500000
vt 0.062500 0.937500
vt 0.078125 1.000000
vt 0.078125 0.000000
vt 0.062500 0.437500
vt 0.062500 0.875000
vt 0.093750 0.875000
vt 0.062500 0.375000
vt 0.062500 0.812500
vt 0.046875 0.000000
vt 0.031250 0.062500
vt 0.031250 0.500000
vt 0.031250 0.937500
vt 0.031250 0.375000
vt 0.031250 0.812500
vt 0.062500 0.312500
vt 0.031250 0.250000
vt 0.062500 0.687500
vt 0.031250 0.750000
vt 0.031250 0.187500
vt 0.031250 0.625000
vt 0.031250 0.125000
vt 0.062500 0.125000
vt 0.062500 0.562500
vt 0.046875 1.000000
vt 0.000000 0.187500
vt 0.000000 0.625000
vt 0.031250 0.687500
vt 0.031250 0.562500
vt 0.000000 0.062500
vt 0.000000 0.500000
vt 0.000000 0.937500
vt 0.015625 1.000000
vt 0.015625 0.000000
vt 0.031250 0.437500
vt 0.031250 0.875000
vt 0.000000 0.375000
vt 0.000000 0.812500
vt 0.031250 0.312500
vt 0.000000 0.750000
vt 0.000000 0.312500
vt 0.000000 0.687500
vt 1.000000 0.875000
vt 0.968750 0.937500
vt 1.000000 0.937500
vt 0.968750 0.375000
vt 1.000000 0.437500
vt 1.000000 0.375000
vt 0.968750 0.812500
vt 1.000000 0.812500
vt 1.000000 0.312500
vt 0.968750 0.750000
vt 1.000000 0.750000
vt 1.000000 0.250000
vt 0.968750 0.312500
vt 0.968750 0.687500
vt 1.000000 0.687500
vt 0.968750 0.187500
vt 1.000000 0.187500
vt 0.968750 0.625000
vt 1.000000 0.625000
vt 0.968750 0.125000
vt 1.000000 0.125000
vt 1.000000 0.562500
vt 0.968750 0.062500
vt 1.000000 0.062500
vt 0.968750 0.500000
vt 1.000000 0.500000
vt 0.984375 1.000000
vt 0.984375 0.000000
vt 0.937500 0.625000
vt 0.937500 0.125000
vt 0.968750 0.562500
vt 0.937500 0.062500
vt 0.937500 0.500000
vt 0.937500 0.937500
vt 0.953125 1.000000
vt 0.953125 0.000000
vt 0.937500 0.437500
vt 0.968750 0.437500
vt 0.937500 0.875000
vt 0.968750 0.875000
vt 0.937500 0.375000
vt 0.937500 0.812500
vt 0.937500 0.750000
vt 0.937500 0.250000
vt 0.968750 0.250000
vt 0.937500 0.687500
vt 0.937500 0.187500
vt 0.906250 0.375000
vt 0.906250 0.812500
vt 0.937500 0.312500
vt 0.906250 0.250000
vt 0.906250 0.750000
vt 0.906250 0.625000
vt 0.906250 0.125000
vt 0.937500 0.562500
vt 0.906250 0.062500
vt 0.906250 0.500000
vt 0.906250 0.937500
vt 0.921875 1.000000
vt 0.921875 0.000000
vt 0.906250 0.875000
vt 0.875000 0.125000
vt 0.906250 0.187500
vt 0.906250 0.562500
vt 0.875000 0.625000
vt 0.875000 0.062500
vt 0.875000 0.500000
vt 0.875000 0.937500
vt 0.890625 1.000000
vt 0.890625 0.000000
vt 0.906250 0.437500
vt 0.875000 0.875000
vt 0.875000 0.375000
vt 0.875000 0.812500
vt 0.906250 0.312500
vt 0.875000 0.250000
vt 0.906250 0.687500
vt 0.875000 0.750000
vt 0.875000 0.187500
vt 0.843750 0.812500
vt 0.875000 0.312500
vt 0.843750 0.375000
vt 0.843750 0.750000
vt 0.843750 0.250000
vt 0.875000 0.687500
vt 0.843750 0.625000
vt 0.843750 0.125000
vt 0.875000 0.562500
vt 0.843750 0.062500
vt 0.843750 0.500000
vt 0.843750 0.937500
vt 0.859375 1.000000
vt 0.859375 0.000000
vt 0.843750 0.437500
vt 0.875000 0.437500
vt 0.843750 0.875000
vt 0.843750 0.562500
vt 0.812500 0.625000
vt 0.812500 0.062500
vt 0.812500 0.500000
vt 0.812500 0.937500
vt 0.828125 1.000000
vt 0.828125 0.000000
vt 0.812500 0.437500
vt 0.812500 0.375000
vt 0.812500 0.812500
vt 0.843750 0.312500
vt 0.812500 0.750000
vt 0.812500 0.250000
vt 0.843750 0.687500
vt 0.812500 0.187500
vt 0.843750 0.187500
vt 0.812500 0.312500
vt 0.781250 0.375000
vt 0.781250 0.750000
vt 0.781250 0.250000
vt 0.812500 0.687500
vt 0.781250 0.187500
vt 0.781250 0.625000
vt 0.781250 0.125000
vt 0.812500 0.125000
vt 0.812500 0.562500
vt 0.781250 0.062500
vt 0.781250 0.500000
vt 0.781250 0.937500
vt 0.796875 1.000000
vt 0.796875 0.000000
vt 0.781250 0.437500
vt 0.781250 0.875000
vt 0.812500 0.875000
vt 0.781250 0.812500
vt 0.781250 0.562500
vt 0.765625 1.000000
vt 0.765625 0.000000
vt 0.781250 0.312500
vt 0.781250 0.687500
vt 0.000000 0.250000
vt 0.000000 0.125000
vt 0.000000 0.562500
vt 0.000000 0.437500
vt 0.000000 0.875000
s 1
usemtl マテリアル
f 25/1/1 481/2/1 482/3/1
f 18/4/2 7/5/2 8/6/2
f 1/7/3 11/8/3 297/9/3
f 206/10/4 25/1/4 482/3/4
f 19/11/5 8/6/5 9/12/6
f 2/13/7 11/8/7 1/7/7
f 20/14/8 9/12/8 478/15/8
f 3/16/9 12/17/9 2/13/9
f 21/18/10 478/15/10 479/19/10
f 14/20/11 3/16/11 4/21/11
f 22/22/12 479/19/12 480/23/12
f 15/24/13 4/21/13 5/25/13
f 23/26/14 480/23/14 10/27/14
f 6/28/15 15/24/15 5/25/15
f 24/29/16 10/27/16 481/2/16
f 17/30/17 6/28/17 7/5/17
f 31/31/18 15/24/18 16/32/18
f 39/33/19 23/26/19 24/29/19
f 17/30/20 31/31/20 16/32/20
f 40/34/21 24/29/21 25/1/21
f 33/35/22 17/30/22 18/4/22
f 11/8/23 26/36/23 297/37/23
f 206/38/24 40/34/24 25/1/24
f 34/39/25 18/4/25 19/11/25
f 27/40/26 11/8/26 12/17/26
f 20/14/27 34/39/27 19/11/27
f 28/41/28 12/17/28 13/42/28
f 36/43/29 20/14/29 21/18/29
f 29/44/30 13/42/30 14/20/30
f 22/22/31 36/43/31 21/18/31
f 30/45/32 14/20/32 15/24/32
f 38/46/33 22/22/33 23/26/33
f 50/47/34 34/39/34 35/48/34
f 43/49/35 27/40/35 28/41/35
f 36/43/36 50/47/36 35/48/36
f 29/44/37 43/49/37 28/41/37
f 52/50/38 36/43/38 37/51/38
f 45/52/39 29/44/39 30/45/39
f 53/53/40 37/51/40 38/46/40
f 46/54/41 30/45/41 31/31/41
f 54/55/42 38/46/43 39/33/42
f 32/56/44 46/54/44 31/31/44
f 55/57/45 39/33/45 40/34/45
f 48/58/46 32/56/46 33/35/46
f 26/36/47 41/59/47 297/60/47
f 206/61/48 55/57/48 40/34/48
f 49/62/49 33/35/49 34/39/49
f 42/63/50 26/36/50 27/40/50
f 69/64/51 53/53/51 54/55/51
f 62/65/52 46/54/52 47/66/52
f 55/57/53 69/64/53 54/55/53
f 48/58/54 62/65/54 47/66/54
f 41/59/55 56/67/55 297/68/55
f 206/69/56 70/70/56 55/57/56
f 64/71/57 48/58/57 49/62/58
f 57/72/59 41/59/59 42/63/59
f 50/47/60 64/71/60 49/62/60
f 58/73/61 42/63/61 43/49/61
f 51/74/62 65/75/62 50/47/62
f 59/76/63 43/49/63 44/77/63
f 67/78/64 51/74/64 52/50/64
f 60/79/65 44/77/65 45/52/65
f 68/80/66 52/50/66 53/53/66
f 61/81/67 45/52/67 46/54/67
f 66/82/68 80/83/68 65/75/68
f 74/84/69 58/73/69 59/76/69
f 82/85/70 66/82/70 67/78/70
f 60/79/71 74/84/71 59/76/71
f 68/80/72 82/85/72 67/78/72
f 76/86/73 60/79/73 61/81/73
f 84/87/74 68/80/74 69/64/74
f 77/88/75 61/81/75 62/65/75
f 85/89/76 69/64/76 70/70/76
f 63/90/77 77/88/77 62/65/77
f 56/67/78 71/91/78 297/92/78
f 206/93/79 85/89/79 70/70/79
f 79/94/80 63/90/80 64/71/81
f 72/95/82 56/67/82 57/72/82
f 80/83/83 64/71/83 65/75/83
f 73/96/84 57/72/84 58/73/84
f 85/89/85 99/97/85 84/87/85
f 93/98/86 77/88/86 78/99/87
f 71/91/88 86/100/88 297/101/88
f 206/102/89 100/103/89 85/89/89
f 94/104/90 78/99/90 79/94/91
f 87/105/92 71/91/92 72/95/92
f 95/106/93 79/94/93 80/83/93
f 88/107/94 72/95/94 73/96/94
f 81/108/95 95/106/95 80/83/95
f 74/84/96 88/107/96 73/96/96
f 82/85/97 96/109/97 81/108/97
f 90/110/98 74/84/98 75/111/98
f 98/112/99 82/85/99 83/113/99
f 91/114/100 75/111/100 76/86/100
f 99/97/101 83/113/102 84/87/101
f 77/88/103 91/114/103 76/86/103
f 89/115/104 103/116/104 88/107/104
f 112/117/105 96/109/105 97/118/105
f 105/119/106 89/115/106 90/110/106
f 113/120/107 97/118/107 98/112/107
f 106/121/108 90/110/108 91/114/108
f 114/122/109 98/112/109 99/97/109
f 92/123/110 106/121/110 91/114/110
f 115/124/111 99/97/111 100/103/111
f 108/125/112 92/123/112 93/98/112
f 86/100/113 101/126/113 297/127/113
f 206/128/114 115/124/114 100/103/114
f 109/129/115 93/98/115 94/104/116
f 102/130/117 86/100/117 87/105/117
f 110/131/118 94/104/118 95/106/118
f 103/116/119 87/105/119 88/107/119
f 96/109/120 110/131/120 95/106/120
f 123/132/121 107/133/121 108/125/122
f 101/126/123 116/134/123 297/135/123
f 206/136/124 130/137/124 115/124/124
f 124/138/125 108/125/125 109/129/125
f 117/139/126 101/126/126 102/130/126
f 125/140/127 109/129/127 110/131/127
f 118/141/128 102/130/128 103/116/128
f 111/142/129 125/140/129 110/131/129
f 119/143/130 103/116/130 104/144/130
f 127/145/131 111/142/131 112/117/131
f 120/146/132 104/144/132 105/119/132
f 113/120/133 127/145/133 112/117/133
f 121/147/134 105/119/134 106/121/134
f 114/122/135 128/148/135 113/120/135
f 107/133/136 121/147/136 106/121/136
f 130/137/137 114/122/137 115/124/137
f 142/149/138 126/150/138 127/145/138
f 120/146/139 134/151/139 119/143/139
f 143/152/140 127/145/140 128/148/140
f 136/153/141 120/146/141 121/147/141
f 144/154/142 128/148/142 129/155/142
f 122/156/143 136/153/143 121/147/143
f 130/137/144 144/154/144 129/155/144
f 138/157/145 122/156/145 123/132/146
f 116/134/147 131/158/147 297/159/147
f 206/160/148 145/161/148 130/137/148
f 139/162/149 123/132/149 124/138/149
f 132/163/150 116/134/150 117/139/150
f 140/164/151 124/138/151 125/140/151
f 133/165/152 117/139/152 118/141/152
f 126/150/153 140/164/153 125/140/153
f 134/151/154 118/141/154 119/143/154
f 131/158/155 146/166/155 297/167/155
f 206/168/156 160/169/156 145/161/156
f 154/170/157 138/157/157 139/162/157
f 147/171/158 131/158/158 132/163/158
f 155/172/159 139/162/159 140/164/159
f 133/165/160 147/171/160 132/163/160
f 141/173/161 155/172/161 140/164/161
f 149/174/162 133/165/162 134/151/162
f 157/175/163 141/173/163 142/149/163
f 135/176/164 149/174/164 134/151/164
f 158/177/165 142/149/165 143/152/165
f 151/178/166 135/176/166 136/153/166
f 159/179/167 143/152/167 144/154/167
f 137/180/168 151/178/168 136/153/168
f 160/169/169 144/154/169 145/161/169
f 153/181/170 137/180/170 138/157/170
f 150/182/171 164/183/171 149/174/171
f 158/177/172 172/184/172 157/175/172
f 166/185/173 150/182/173 151/178/173
f 174/186/174 158/177/175 159/179/174
f 152/187/176 166/185/176 151/178/176
f 160/169/177 174/186/177 159/179/177
f 168/188/178 152/187/178 153/181/178
f 146/166/179 161/189/179 297/190/179
f 206/191/180 175/192/180 160/169/180
f 154/170/181 168/188/181 153/181/181
f 162/193/182 146/166/182 147/171/182
f 170/194/183 154/170/183 155/172/183
f 163/195/184 147/171/184 148/196/184
f 156/197/185 170/194/185 155/172/185
f 164/183/186 148/196/186 149/174/186
f 172/184/187 156/197/187 157/175/187
f 184/198/188 168/188/188 169/199/188
f 177/200/189 161/189/189 162/193/189
f 185/201/190 169/199/190 170/194/190
f 163/195/191 177/200/191 162/193/191
f 171/202/192 185/201/192 170/194/192
f 179/203/193 163/195/193 164/183/193
f 187/204/194 171/202/194 172/184/194
f 180/205/195 164/183/195 165/206/195
f 173/207/196 187/204/196 172/184/196
f 181/208/197 165/206/197 166/185/197
f 189/209/198 173/207/198 174/186/198
f 167/210/199 181/208/199 166/185/199
f 190/211/200 174/186/200 175/192/200
f 183/212/201 167/210/201 168/188/201
f 161/189/202 176/213/202 297/214/202
f 206/215/203 190/211/203 175/192/203
f 188/216/204 202/217/204 187/204/204
f 196/218/205 180/205/205 181/208/205
f 189/209/206 203/219/206 188/216/206
f 182/220/207 196/218/207 181/208/207
f 190/211/208 204/221/208 189/209/208
f 198/222/209 182/220/209 183/212/209
f 176/213/210 191/223/210 297/224/210
f 206/225/211 205/226/211 190/211/211
f 184/198/212 198/222/212 183/212/212
f 192/227/213 176/213/213 177/200/213
f 200/228/214 184/198/214 185/201/214
f 193/229/215 177/200/215 178/230/215
f 186/231/216 200/228/216 185/201/216
f 194/232/217 178/230/217 179/203/217
f 202/217/218 186/231/218 187/204/218
f 180/205/219 194/232/219 179/203/219
f 216/233/220 199/234/220 200/228/220
f 209/235/221 192/227/221 193/229/221
f 201/236/222 216/233/222 200/228/222
f 210/237/223 193/229/223 194/232/223
f 218/238/224 201/236/224 202/217/224
f 211/239/225 194/232/225 195/240/225
f 219/241/226 202/217/226 203/219/226
f 212/242/227 195/240/227 196/218/227
f 204/221/228 219/241/228 203/219/228
f 197/243/229 212/242/229 196/218/229
f 221/244/230 204/221/230 205/226/231
f 214/245/232 197/243/232 198/222/232
f 191/223/233 207/246/233 297/247/233
f 206/248/234 221/244/234 205/226/234
f 215/249/235 198/222/235 199/234/235
f 208/250/236 191/223/236 192/227/236
f 235/251/237 219/241/237 220/252/237
f 213/253/238 227/254/238 212/242/238
f 236/255/239 220/252/239 221/244/239
f 229/256/240 213/253/240 214/245/240
f 207/246/241 222/257/241 297/258/241
f 206/259/242 236/255/242 221/244/242
f 230/260/243 214/245/243 215/249/243
f 223/261/244 207/246/244 208/250/244
f 231/262/245 215/249/245 216/233/245
f 224/263/246 208/250/246 209/235/246
f 217/264/247 231/262/247 216/233/247
f 210/237/248 224/263/248 209/235/248
f 233/265/249 217/264/249 218/238/249
f 226/266/250 210/237/250 211/239/250
f 234/267/251 218/238/251 219/241/251
f 227/254/252 211/239/252 212/242/252
f 239/268/253 223/261/253 224/263/253
f 232/269/254 246/270/254 231/262/254
f 225/271/255 239/268/255 224/263/255
f 248/272/256 232/269/256 233/265/256
f 226/266/257 240/273/257 225/271/257
f 234/267/258 248/272/258 233/265/258
f 242/274/259 226/266/259 227/254/259
f 235/251/260 249/275/260 234/267/260
f 228/276/261 242/274/261 227/254/261
f 236/255/262 250/277/262 235/251/262
f 244/278/263 228/276/263 229/256/263
f 222/257/264 237/279/264 297/280/264
f 206/281/265 251/282/265 236/255/265
f 245/283/266 229/256/266 230/260/266
f 238/284/267 222/257/267 223/261/267
f 246/270/268 230/260/268 231/262/268
f 243/285/269 257/286/269 242/274/269
f 251/282/270 265/287/270 250/277/270
f 259/288/271 243/285/271 244/278/272
f 237/279/273 252/289/273 297/290/273
f 206/291/274 266/292/274 251/282/274
f 260/293/275 244/278/275 245/283/275
f 253/294/276 237/279/276 238/284/276
f 261/295/277 245/283/277 246/270/277
f 254/296/278 238/284/278 239/268/278
f 247/297/279 261/295/279 246/270/279
f 240/273/280 254/296/280 239/268/280
f 263/298/281 247/297/281 248/272/281
f 241/299/282 255/300/282 240/273/282
f 264/301/283 248/272/283 249/275/283
f 257/286/284 241/299/284 242/274/284
f 265/287/285 249/275/285 250/277/285
f 262/302/286 276/303/286 261/295/286
f 255/300/287 269/304/287 254/296/287
f 278/305/288 262/302/288 263/298/288
f 271/306/289 255/300/289 256/307/289
f 279/308/290 263/298/290 264/301/290
f 272/309/291 256/307/291 257/286/291
f 280/310/292 264/301/292 265/287/292
f 258/311/293 272/309/293 257/286/293
f 281/312/294 265/287/294 266/292/294
f 259/288/295 273/313/295 258/311/295
f 252/289/296 267/314/296 297/315/296
f 206/316/297 281/312/297 266/292/297
f 275/317/298 259/288/298 260/293/298
f 268/318/299 252/289/299 253/294/299
f 276/303/300 260/293/300 261/295/300
f 269/304/301 253/294/301 254/296/301
f 281/312/302 295/319/302 280/310/302
f 289/320/303 273/313/303 274/321/303
f 267/314/304 282/322/304 297/323/304
f 206/324/305 296/325/305 281/312/305
f 290/326/306 274/321/306 275/317/306
f 283/327/307 267/314/307 268/318/307
f 291/328/308 275/317/308 276/303/308
f 284/329/309 268/318/309 269/304/310
f 277/330/311 291/328/311 276/303/311
f 285/331/312 269/304/312 270/332/312
f 293/333/313 277/330/313 278/305/313
f 271/306/314 285/331/314 270/332/314
f 279/308/315 293/333/315 278/305/315
f 287/334/316 271/306/316 272/309/316
f 295/319/317 279/308/317 280/310/317
f 273/313/318 287/334/318 272/309/318
f 285/331/319 300/335/319 284/329/319
f 309/336/320 292/337/320 293/333/320
f 286/338/321 301/339/321 285/331/321
f 310/340/322 293/333/322 294/341/322
f 303/342/323 286/338/323 287/334/323
f 295/319/324 310/340/324 294/341/324
f 288/343/325 303/342/325 287/334/325
f 312/344/326 295/319/326 296/325/326
f 289/320/327 304/345/327 288/343/327
f 282/322/328 298/346/328 297/347/328
f 206/348/329 312/344/329 296/325/329
f 306/349/330 289/320/330 290/326/330
f 299/350/331 282/322/331 283/327/331
f 307/351/332 290/326/332 291/328/332
f 300/335/333 283/327/333 284/329/333
f 292/337/334 307/351/334 291/328/334
f 320/352/335 304/345/335 305/353/335
f 298/346/336 313/354/336 297/355/336
f 206/356/337 327/357/337 312/344/337
f 321/358/338 305/353/338 306/349/338
f 299/350/339 313/354/339 298/346/339
f 322/359/340 306/349/340 307/351/340
f 315/360/341 299/350/341 300/335/341
f 308/361/342 322/359/342 307/351/342
f 301/339/343 315/360/343 300/335/343
f 324/362/344 308/361/344 309/336/344
f 302/363/345 316/364/345 301/339/345
f 325/365/346 309/336/346 310/340/346
f 318/366/347 302/363/347 303/342/347
f 311/367/348 325/365/348 310/340/348
f 304/345/349 318/366/349 303/342/349
f 327/357/350 311/367/350 312/344/350
f 339/368/351 323/369/351 324/362/351
f 317/370/352 331/371/352 316/364/352
f 340/372/353 324/362/353 325/365/353
f 333/373/354 317/370/354 318/366/354
f 326/374/355 340/372/355 325/365/356
f 319/375/357 333/373/357 318/366/357
f 342/376/358 326/374/358 327/357/358
f 335/377/359 319/375/359 320/352/359
f 313/354/360 328/378/360 297/379/360
f 206/380/361 342/376/361 327/357/361
f 336/381/362 320/352/362 321/358/362
f 329/382/363 313/354/363 314/383/363
f 337/384/364 321/358/364 322/359/364
f 330/385/365 314/383/366 315/360/365
f 323/369/367 337/384/367 322/359/367
f 331/371/368 315/360/368 316/364/368
f 206/386/369 357/387/369 342/376/369
f 336/381/370 350/388/370 335/377/370
f 329/382/371 343/389/371 328/378/371
f 352/390/372 336/381/372 337/384/372
f 345/391/373 329/382/373 330/385/373
f 338/392/374 352/390/374 337/384/374
f 331/371/375 345/391/375 330/385/375
f 354/393/376 338/392/376 339/368/376
f 332/394/377 346/395/377 331/371/377
f 355/396/378 339/368/378 340/372/378
f 348/397/379 332/394/379 333/373/379
f 356/398/380 340/372/380 341/399/380
f 334/400/381 348/397/381 333/373/381
f 357/387/382 341/399/382 342/376/382
f 350/388/383 334/400/383 335/377/383
f 328/378/384 343/389/384 297/401/384
f 370/402/385 354/393/385 355/396/385
f 363/403/386 347/404/386 348/397/386
f 356/398/387 370/402/387 355/396/387
f 349/405/388 363/403/388 348/397/388
f 372/406/389 356/398/389 357/387/389
f 365/407/390 349/405/390 350/388/390
f 343/389/391 358/408/391 297/409/391
f 206/410/392 372/406/392 357/387/392
f 351/411/393 365/407/393 350/388/393
f 344/412/394 358/408/394 343/389/394
f 367/413/395 351/411/395 352/390/395
f 360/414/396 344/412/396 345/391/396
f 353/415/397 367/413/397 352/390/397
f 361/416/398 345/391/398 346/395/398
f 354/393/399 368/417/399 353/415/399
f 362/418/400 346/395/400 347/404/400
f 359/419/401 373/420/401 358/421/401
f 382/422/402 366/423/402 367/424/402
f 375/425/403 359/419/403 360/426/403
f 368/427/404 382/422/404 367/424/404
f 376/428/405 360/426/405 361/429/405
f 369/430/406 383/431/406 368/427/406
f 377/432/407 361/429/407 362/433/407
f 385/434/408 369/430/408 370/435/408
f 378/436/409 362/433/409 363/437/409
f 386/438/410 370/435/410 371/439/410
f 364/440/411 378/436/411 363/437/411
f 387/441/412 371/439/412 372/442/412
f 380/443/413 364/440/413 365/444/414
f 358/421/415 373/420/415 297/445/415
f 206/446/416 387/441/416 372/442/416
f 366/423/417 380/443/417 365/444/417
f 393/447/418 377/432/418 378/436/418
f 401/448/419 385/434/419 386/438/419
f 379/449/420 393/447/420 378/436/420
f 402/450/421 386/438/421 387/441/421
f 395/451/422 379/449/422 380/443/422
f 373/420/423 388/452/423 297/453/423
f 206/454/424 402/450/424 387/441/424
f 396/455/425 380/443/425 381/456/425
f 389/457/426 373/420/426 374/458/426
f 397/459/427 381/456/427 382/422/427
f 390/460/428 374/458/428 375/425/428
f 383/431/429 397/459/429 382/422/429
f 391/461/430 375/425/430 376/428/430
f 399/462/431 383/431/431 384/463/431
f 392/464/432 376/428/432 377/432/432
f 400/465/433 384/463/433 385/434/433
f 412/466/434 396/455/434 397/459/434
f 405/467/435 389/457/435 390/460/435
f 398/468/436 412/466/436 397/459/436
f 391/461/437 405/467/437 390/460/437
f 414/469/438 398/468/438 399/462/438
f 392/464/439 406/470/439 391/461/439
f 400/465/440 414/469/440 399/462/440
f 408/471/441 392/464/441 393/447/441
f 416/472/442 400/465/442 401/448/442
f 394/473/443 408/471/443 393/447/443
f 417/474/444 401/448/444 402/450/444
f 410/475/445 394/473/445 395/451/445
f 388/452/446 403/476/446 297/477/446
f 206/478/447 417/474/447 402/450/447
f 396/455/448 410/475/448 395/451/448
f 404/479/449 388/452/449 389/457/449
f 431/480/450 415/481/450 416/472/450
f 409/482/451 423/483/451 408/471/451
f 432/484/452 416/472/452 417/474/452
f 425/485/453 409/482/453 410/475/453
f 403/476/454 418/486/454 297/487/454
f 206/488/455 432/484/455 417/474/455
f 411/489/456 425/485/456 410/475/456
f 419/490/457 403/476/457 404/479/457
f 427/491/458 411/489/458 412/466/458
f 420/492/459 404/479/459 405/467/459
f 413/493/460 427/491/460 412/466/460
f 406/470/461 420/492/461 405/467/461
f 429/494/462 413/493/462 414/469/462
f 407/495/463 421/496/463 406/470/463
f 430/497/464 414/469/464 415/481/464
f 423/483/465 407/495/465 408/471/465
f 435/498/466 419/490/466 420/492/466
f 428/499/467 442/500/467 427/491/467
f 436/501/468 420/492/468 421/496/468
f 444/502/469 428/499/469 429/494/469
f 422/503/470 436/501/470 421/496/470
f 430/497/471 444/502/471 429/494/471
f 438/504/472 422/503/472 423/483/472
f 446/505/473 430/497/473 431/480/473
f 424/506/474 438/504/474 423/483/474
f 447/507/475 431/480/475 432/484/475
f 440/508/476 424/506/476 425/485/476
f 418/486/477 433/509/477 297/510/477
f 206/511/478 447/507/478 432/484/478
f 441/512/479 425/485/479 426/513/479
f 434/514/480 418/486/480 419/490/480
f 442/500/481 426/513/481 427/491/481
f 439/515/482 453/516/482 438/504/482
f 462/517/483 446/505/483 447/507/483
f 455/518/484 439/515/484 440/508/484
f 433/509/485 448/519/485 297/520/485
f 206/521/486 462/517/486 447/507/486
f 456/522/487 440/508/487 441/512/487
f 434/514/488 448/519/488 433/509/488
f 457/523/489 441/512/489 442/500/489
f 450/524/490 434/514/490 435/498/490
f 443/525/491 457/523/491 442/500/491
f 451/526/492 435/498/492 436/501/492
f 459/527/493 443/525/493 444/502/493
f 437/528/494 451/526/494 436/501/494
f 460/529/495 444/502/495 445/530/495
f 453/516/496 437/528/496 438/504/496
f 446/505/497 460/529/497 445/530/497
f 458/531/498 472/532/498 457/523/498
f 466/533/499 450/524/499 451/526/499
f 474/534/500 458/531/500 459/527/500
f 452/535/501 466/533/501 451/526/501
f 475/536/502 459/527/502 460/529/502
f 468/537/503 452/535/503 453/516/503
f 476/538/504 460/529/504 461/539/504
f 454/540/505 468/537/505 453/516/505
f 477/541/506 461/539/506 462/517/506
f 470/542/507 454/540/507 455/518/507
f 448/519/508 463/543/508 297/544/508
f 206/545/509 477/541/509 462/517/509
f 471/546/510 455/518/510 456/522/510
f 464/547/511 448/519/511 449/548/511
f 472/532/512 456/522/512 457/523/512
f 465/549/513 449/548/513 450/524/513
f 482/3/514 476/538/514 477/541/514
f 470/542/515 7/5/515 469/550/515
f 463/543/516 1/7/516 297/551/516
f 206/552/517 482/3/517 477/541/517
f 9/12/518 470/542/518 471/546/519
f 464/547/520 1/7/520 463/543/520
f 478/15/521 471/546/521 472/532/521
f 465/549/522 2/13/522 464/547/522
f 473/553/523 478/15/523 472/532/523
f 466/533/524 3/16/524 465/549/524
f 480/23/525 473/553/525 474/534/525
f 467/554/526 4/21/526 466/533/526
f 10/27/527 474/534/527 475/536/527
f 468/537/528 5/25/528 467/554/528
f 481/2/529 475/536/529 476/538/529
f 469/550/530 6/28/530 468/537/530
f 25/1/1 24/29/1 481/2/1
f 18/4/2 17/30/531 7/5/2
f 19/11/5 18/4/5 8/6/5
f 2/13/7 12/17/7 11/8/7
f 20/14/8 19/11/8 9/12/8
f 3/16/9 13/42/9 12/17/9
f 21/18/10 20/14/10 478/15/10
f 14/20/11 13/42/11 3/16/11
f 22/22/12 21/18/12 479/19/12
f 15/24/13 14/20/13 4/21/13
f 23/26/14 22/22/14 480/23/14
f 6/28/15 16/32/15 15/24/15
f 24/29/16 23/26/16 10/27/16
f 17/30/17 16/32/17 6/28/17
f 31/31/18 30/45/18 15/24/18
f 39/33/19 38/46/19 23/26/19
f 17/30/20 32/56/20 31/31/20
f 40/34/21 39/33/21 24/29/21
f 33/35/22 32/56/532 17/30/22
f 34/39/25 33/35/25 18/4/25
f 27/40/26 26/36/26 11/8/26
f 20/14/27 35/48/27 34/39/27
f 28/41/28 27/40/28 12/17/28
f 36/43/29 35/48/29 20/14/29
f 29/44/30 28/41/30 13/42/30
f 22/22/31 37/51/31 36/43/31
f 30/45/32 29/44/32 14/20/32
f 38/46/33 37/51/33 22/22/33
f 50/47/34 49/62/34 34/39/34
f 43/49/35 42/63/35 27/40/35
f 36/43/36 51/74/36 50/47/36
f 29/44/37 44/77/37 43/49/37
f 52/50/38 51/74/38 36/43/38
f 45/52/39 44/77/39 29/44/39
f 53/53/40 52/50/40 37/51/40
f 46/54/41 45/52/41 30/45/41
f 54/55/42 53/53/43 38/46/43
f 32/56/44 47/66/44 46/54/44
f 55/57/45 54/55/45 39/33/45
f 48/58/46 47/66/46 32/56/46
f 49/62/49 48/58/49 33/35/49
f 42/63/50 41/59/50 26/36/50
f 69/64/51 68/80/51 53/53/51
f 62/65/52 61/81/52 46/54/52
f 55/57/53 70/70/53 69/64/53
f 48/58/54 63/90/533 62/65/54
f 64/71/57 63/90/57 48/58/57
f 57/72/59 56/67/59 41/59/59
f 50/47/60 65/75/60 64/71/60
f 58/73/61 57/72/61 42/63/61
f 51/74/62 66/82/62 65/75/62
f 59/76/63 58/73/63 43/49/63
f 67/78/64 66/82/64 51/74/64
f 60/79/65 59/76/65 44/77/65
f 68/80/66 67/78/66 52/50/66
f 61/81/67 60/79/67 45/52/67
f 66/82/68 81/108/68 80/83/68
f 74/84/69 73/96/69 58/73/69
f 82/85/70 81/108/70 66/82/70
f 60/79/71 75/111/71 74/84/71
f 68/80/72 83/113/72 82/85/72
f 76/86/73 75/111/73 60/79/73
f 84/87/74 83/113/74 68/80/74
f 77/88/75 76/86/75 61/81/75
f 85/89/76 84/87/76 69/64/76
f 63/90/77 78/99/77 77/88/77
f 79/94/80 78/99/80 63/90/80
f 72/95/82 71/91/82 56/67/82
f 80/83/83 79/94/83 64/71/83
f 73/96/84 72/95/84 57/72/84
f 85/89/85 100/103/85 99/97/85
f 93/98/86 92/123/86 77/88/86
f 94/104/90 93/98/90 78/99/90
f 87/105/92 86/100/92 71/91/92
f 95/106/93 94/104/93 79/94/93
f 88/107/94 87/105/94 72/95/94
f 81/108/95 96/109/95 95/106/95
f 74/84/96 89/115/96 88/107/96
f 82/85/97 97/118/97 96/109/97
f 90/110/98 89/115/98 74/84/98
f 98/112/99 97/118/99 82/85/99
f 91/114/100 90/110/100 75/111/100
f 99/97/101 98/112/102 83/113/102
f 77/88/103 92/123/103 91/114/103
f 89/115/104 104/144/104 103/116/104
f 112/117/105 111/142/105 96/109/105
f 105/119/106 104/144/106 89/115/106
f 113/120/107 112/117/107 97/118/107
f 106/121/108 105/119/108 90/110/108
f 114/122/109 113/120/109 98/112/109
f 92/123/110 107/133/110 106/121/110
f 115/124/111 114/122/111 99/97/111
f 108/125/112 107/133/112 92/123/112
f 109/129/115 108/125/115 93/98/115
f 102/130/117 101/126/117 86/100/117
f 110/131/118 109/129/118 94/104/118
f 103/116/119 102/130/119 87/105/119
f 96/109/120 111/142/120 110/131/120
f 123/132/121 122/156/121 107/133/121
f 124/138/125 123/132/125 108/125/125
f 117/139/126 116/134/126 101/126/126
f 125/140/127 124/138/127 109/129/127
f 118/141/128 117/139/128 102/130/128
f 111/142/129 126/150/129 125/140/129
f 119/143/130 118/141/130 103/116/130
f 127/145/131 126/150/131 111/142/131
f 120/146/132 119/143/132 104/144/132
f 113/120/133 128/148/133 127/145/133
f 121/147/134 120/146/134 105/119/134
f 114/122/135 129/155/135 128/148/135
f 107/133/136 122/156/136 121/147/136
f 130/137/137 129/155/137 114/122/137
f 142/149/138 141/173/138 126/150/138
f 120/146/139 135/176/139 134/151/139
f 143/152/140 142/149/140 127/145/140
f 136/153/141 135/176/141 120/146/141
f 144/154/142 143/152/142 128/148/142
f 122/156/143 137/180/143 136/153/143
f 130/137/144 145/161/144 144/154/144
f 138/157/145 137/180/145 122/156/145
f 139/162/149 138/157/149 123/132/149
f 132/163/150 131/158/150 116/134/150
f 140/164/151 139/162/151 124/138/151
f 133/165/152 132/163/152 117/139/152
f 126/150/153 141/173/153 140/164/153
f 134/151/154 133/165/154 118/141/154
f 154/170/157 153/181/157 138/157/157
f 147/171/158 146/166/158 131/158/158
f 155/172/159 154/170/159 139/162/159
f 133/165/160 148/196/160 147/171/160
f 141/173/161 156/197/161 155/172/161
f 149/174/162 148/196/162 133/165/162
f 157/175/163 156/197/163 141/173/163
f 135/176/164 150/182/164 149/174/164
f 158/177/165 157/175/165 142/149/165
f 151/178/166 150/182/166 135/176/166
f 159/179/167 158/177/167 143/152/167
f 137/180/168 152/187/168 151/178/168
f 160/169/169 159/179/169 144/154/169
f 153/181/170 152/187/170 137/180/170
f 150/182/171 165/206/171 164/183/171
f 158/177/172 173/207/172 172/184/172
f 166/185/173 165/206/173 150/182/173
f 174/186/174 173/207/175 158/177/175
f 152/187/176 167/210/176 166/185/176
f 160/169/177 175/192/177 174/186/177
f 168/188/178 167/210/178 152/187/178
f 154/170/181 169/199/181 168/188/181
f 162/193/182 161/189/182 146/166/182
f 170/194/183 169/199/183 154/170/183
f 163/195/184 162/193/184 147/171/184
f 156/197/185 171/202/185 170/194/185
f 164/183/186 163/195/186 148/196/186
f 172/184/187 171/202/187 156/197/187
f 184/198/188 183/212/188 168/188/188
f 177/200/189 176/213/189 161/189/189
f 185/201/190 184/198/190 169/199/190
f 163/195/191 178/230/191 177/200/191
f 171/202/192 186/231/192 185/201/192
f 179/203/193 178/230/193 163/195/193
f 187/204/194 186/231/194 171/202/194
f 180/205/195 179/203/195 164/183/195
f 173/207/196 188/216/196 187/204/196
f 181/208/197 180/205/197 165/206/197
f 189/209/198 188/216/198 173/207/198
f 167/210/199 182/220/199 181/208/199
f 190/211/200 189/209/200 174/186/200
f 183/212/201 182/220/201 167/210/201
f 188/216/204 203/219/204 202/217/204
f 196/218/205 195/240/205 180/205/205
f 189/209/206 204/221/206 203/219/206
f 182/220/207 197/243/207 196/218/207
f 190/211/208 205/226/208 204/221/208
f 198/222/209 197/243/209 182/220/209
f 184/198/212 199/234/212 198/222/212
f 192/227/213 191/223/213 176/213/213
f 200/228/214 199/234/214 184/198/214
f 193/229/215 192/227/215 177/200/215
f 186/231/216 201/236/216 200/228/216
f 194/232/217 193/229/217 178/230/217
f 202/217/218 201/236/218 186/231/218
f 180/205/219 195/240/219 194/232/219
f 216/233/220 215/249/220 199/234/220
f 209/235/221 208/250/221 192/227/221
f 201/236/222 217/264/222 216/233/222
f 210/237/223 209/235/223 193/229/223
f 218/238/224 217/264/224 201/236/224
f 211/239/225 210/237/225 194/232/225
f 219/241/226 218/238/226 202/217/226
f 212/242/227 211/239/227 195/240/227
f 204/221/228 220/252/228 219/241/228
f 197/243/229 213/253/229 212/242/229
f 221/244/230 220/252/230 204/221/230
f 214/245/232 213/253/232 197/243/232
f 215/249/235 214/245/235 198/222/235
f 208/250/236 207/246/236 191/223/236
f 235/251/237 234/267/237 219/241/237
f 213/253/238 228/276/238 227/254/238
f 236/255/239 235/251/239 220/252/239
f 229/256/240 228/276/240 213/253/240
f 230/260/243 229/256/243 214/245/243
f 223/261/244 222/257/244 207/246/244
f 231/262/245 230/260/245 215/249/245
f 224/263/246 223/261/246 208/250/246
f 217/264/247 232/269/247 231/262/247
f 210/237/248 225/271/248 224/263/248
f 233/265/249 232/269/249 217/264/249
f 226/266/250 225/271/250 210/237/250
f 234/267/251 233/265/251 218/238/251
f 227/254/252 226/266/252 211/239/252
f 239/268/253 238/284/253 223/261/253
f 232/269/254 247/297/254 246/270/254
f 225/271/255 240/273/255 239/268/255
f 248/272/256 247/297/256 232/269/256
f 226/266/257 241/299/257 240/273/257
f 234/267/258 249/275/258 248/272/258
f 242/274/259 241/299/259 226/266/259
f 235/251/260 250/277/260 249/275/260
f 228/276/261 243/285/261 242/274/261
f 236/255/262 251/282/262 250/277/262
f 244/278/263 243/285/263 228/276/263
f 245/283/266 244/278/266 229/256/266
f 238/284/267 237/279/267 222/257/267
f 246/270/268 245/283/268 230/260/268
f 243/285/269 258/311/269 257/286/269
f 251/282/270 266/292/270 265/287/270
f 259/288/271 258/311/271 243/285/271
f 260/293/275 259/288/275 244/278/275
f 253/294/276 252/289/276 237/279/276
f 261/295/277 260/293/277 245/283/277
f 254/296/278 253/294/278 238/284/278
f 247/297/279 262/302/279 261/295/279
f 240/273/280 255/300/280 254/296/280
f 263/298/281 262/302/281 247/297/281
f 241/299/282 256/307/282 255/300/282
f 264/301/283 263/298/283 248/272/283
f 257/286/284 256/307/284 241/299/284
f 265/287/285 264/301/285 249/275/285
f 262/302/286 277/330/286 276/303/286
f 255/300/287 270/332/287 269/304/287
f 278/305/288 277/330/288 262/302/288
f 271/306/289 270/332/289 255/300/289
f 279/308/290 278/305/290 263/298/290
f 272/309/291 271/306/291 256/307/291
f 280/310/292 279/308/292 264/301/292
f 258/311/293 273/313/293 272/309/293
f 281/312/294 280/310/294 265/287/294
f 259/288/295 274/321/295 273/313/295
f 275/317/298 274/321/298 259/288/298
f 268/318/299 267/314/299 252/289/299
f 276/303/300 275/317/300 260/293/300
f 269/304/301 268/318/301 253/294/301
f 281/312/302 296/325/534 295/319/302
f 289/320/303 288/343/303 273/313/303
f 290/326/306 289/320/306 274/321/306
f 283/327/307 282/322/307 267/314/307
f 291/328/308 290/326/308 275/317/308
f 284/329/309 283/327/309 268/318/309
f 277/330/311 292/337/311 291/328/311
f 285/331/312 284/329/312 269/304/312
f 293/333/313 292/337/313 277/330/313
f 271/306/314 286/338/314 285/331/314
f 279/308/315 294/341/315 293/333/315
f 287/334/316 286/338/316 271/306/316
f 295/319/317 294/341/317 279/308/317
f 273/313/318 288/343/318 287/334/318
f 285/331/319 301/339/319 300/335/319
f 309/336/320 308/361/320 292/337/320
f 286/338/321 302/363/321 301/339/321
f 310/340/322 309/336/322 293/333/322
f 303/342/323 302/363/323 286/338/323
f 295/319/324 311/367/324 310/340/324
f 288/343/325 304/345/325 303/342/325
f 312/344/326 311/367/326 295/319/326
f 289/320/327 305/353/327 304/345/327
f 306/349/330 305/353/330 289/320/330
f 299/350/331 298/346/331 282/322/331
f 307/351/332 306/349/332 290/326/332
f 300/335/333 299/350/333 283/327/333
f 292/337/334 308/361/334 307/351/334
f 320/352/335 319/375/335 304/345/335
f 321/358/338 320/352/338 305/353/338
f 299/350/339 314/383/339 313/354/339
f 322/359/340 321/358/340 306/349/340
f 315/360/341 314/383/341 299/350/341
f 308/361/342 323/369/342 322/359/342
f 301/339/343 316/364/343 315/360/343
f 324/362/344 323/369/344 308/361/344
f 302/363/345 317/370/345 316/364/345
f 325/365/346 324/362/346 309/336/346
f 318/366/347 317/370/347 302/363/347
f 311/367/348 326/374/348 325/365/348
f 304/345/349 319/375/349 318/366/349
f 327/357/350 326/374/350 311/367/350
f 339/368/351 338/392/351 323/369/351
f 317/370/352 332/394/352 331/371/352
f 340/372/353 339/368/353 324/362/353
f 333/373/354 332/394/354 317/370/354
f 326/374/355 341/399/355 340/372/355
f 319/375/357 334/400/357 333/373/357
f 342/376/358 341/399/358 326/374/358
f 335/377/359 334/400/359 319/375/359
f 336/381/362 335/377/362 320/352/362
f 329/382/363 328/378/363 313/354/363
f 337/384/364 336/381/364 321/358/364
f 330/385/365 329/382/366 314/383/366
f 323/369/367 338/392/367 337/384/367
f 331/371/368 330/385/368 315/360/368
f 336/381/370 351/411/370 350/388/370
f 329/382/371 344/412/371 343/389/371
f 352/390/372 351/411/372 336/381/372
f 345/391/373 344/412/373 329/382/373
f 338/392/374 353/415/374 352/390/374
f 331/371/375 346/395/375 345/391/375
f 354/393/376 353/415/376 338/392/376
f 332/394/377 347/404/377 346/395/377
f 355/396/378 354/393/378 339/368/378
f 348/397/379 347/404/379 332/394/379
f 356/398/380 355/396/380 340/372/380
f 334/400/381 349/405/381 348/397/381
f 357/387/382 356/398/382 341/399/382
f 350/388/383 349/405/383 334/400/383
f 370/402/385 369/555/385 354/393/385
f 363/403/386 362/418/386 347/404/386
f 356/398/387 371/556/387 370/402/387
f 349/405/388 364/557/388 363/403/388
f 372/406/389 371/556/389 356/398/389
f 365/407/390 364/557/390 349/405/390
f 351/411/393 366/558/393 365/407/393
f 344/412/394 359/559/394 358/408/394
f 367/413/395 366/558/395 351/411/395
f 360/414/396 359/559/396 344/412/396
f 353/415/397 368/417/397 367/413/397
f 361/416/398 360/414/398 345/391/398
f 354/393/399 369/555/399 368/417/399
f 362/418/400 361/416/400 346/395/400
f 359/419/401 374/458/401 373/420/401
f 382/422/402 381/456/402 366/423/402
f 375/425/403 374/458/403 359/419/403
f 368/427/404 383/431/404 382/422/404
f 376/428/405 375/425/405 360/426/405
f 369/430/406 384/463/406 383/431/406
f 377/432/407 376/428/407 361/429/407
f 385/434/408 384/463/408 369/430/408
f 378/436/409 377/432/409 362/433/409
f 386/438/410 385/434/410 370/435/410
f 364/440/411 379/449/411 378/436/411
f 387/441/412 386/438/412 371/439/412
f 380/443/413 379/449/413 364/440/413
f 366/423/417 381/456/417 380/443/417
f 393/447/418 392/464/418 377/432/418
f 401/448/419 400/465/419 385/434/419
f 379/449/420 394/473/420 393/447/420
f 402/450/421 401/448/421 386/438/421
f 395/451/422 394/473/422 379/449/422
f 396/455/425 395/451/425 380/443/425
f 389/457/426 388/452/426 373/420/426
f 397/459/427 396/455/427 381/456/427
f 390/460/428 389/457/428 374/458/428
f 383/431/429 398/468/429 397/459/429
f 391/461/430 390/460/430 375/425/430
f 399/462/431 398/468/431 383/431/431
f 392/464/432 391/461/432 376/428/432
f 400/465/433 399/462/433 384/463/433
f 412/466/434 411/489/434 396/455/434
f 405/467/435 404/479/435 389/457/435
f 398/468/436 413/493/436 412/466/436
f 391/461/437 406/470/437 405/467/437
f 414/469/438 413/493/438 398/468/438
f 392/464/439 407/495/439 406/470/439
f 400/465/440 415/481/440 414/469/440
f 408/471/441 407/495/441 392/464/441
f 416/472/442 415/481/442 400/465/442
f 394/473/443 409/482/443 408/471/443
f 417/474/444 416/472/444 401/448/444
f 410/475/445 409/482/445 394/473/445
f 396/455/448 411/489/448 410/475/448
f 404/479/449 403/476/449 388/452/449
f 431/480/450 430/497/450 415/481/450
f 409/482/451 424/506/451 423/483/451
f 432/484/452 431/480/452 416/472/452
f 425/485/453 424/506/453 409/482/453
f 411/489/456 426/513/456 425/485/456
f 419/490/457 418/486/457 403/476/457
f 427/491/458 426/513/458 411/489/458
f 420/492/459 419/490/459 404/479/459
f 413/493/460 428/499/460 427/491/460
f 406/470/461 421/496/461 420/492/461
f 429/494/462 428/499/462 413/493/462
f 407/495/463 422/503/463 421/496/463
f 430/497/464 429/494/464 414/469/464
f 423/483/465 422/503/465 407/495/465
f 435/498/466 434/514/466 419/490/466
f 428/499/467 443/525/467 442/500/467
f 436/501/468 435/498/468 420/492/468
f 444/502/469 443/525/469 428/499/469
f 422/503/470 437/528/470 436/501/470
f 430/497/471 445/530/471 444/502/471
f 438/504/472 437/528/472 422/503/472
f 446/505/473 445/530/473 430/497/473
f 424/506/474 439/515/474 438/504/474
f 447/507/475 446/505/475 431/480/475
f 440/508/476 439/515/476 424/506/476
f 441/512/479 440/508/479 425/485/479
f 434/514/480 433/509/480 418/486/480
f 442/500/481 441/512/481 426/513/481
f 439/515/482 454/540/482 453/516/482
f 462/517/483 461/539/483 446/505/483
f 455/518/484 454/540/484 439/515/484
f 456/522/487 455/518/487 440/508/487
f 434/514/488 449/548/488 448/519/488
f 457/523/489 456/522/489 441/512/489
f 450/524/490 449/548/490 434/514/490
f 443/525/491 458/531/491 457/523/491
f 451/526/492 450/524/492 435/498/492
f 459/527/493 458/531/493 443/525/493
f 437/528/494 452/535/494 451/526/494
f 460/529/495 459/527/495 444/502/495
f 453/516/496 452/535/496 437/528/496
f 446/505/497 461/539/497 460/529/497
f 458/531/498 473/553/498 472/532/498
f 466/533/499 465/549/499 450/524/499
f 474/534/500 473/553/500 458/531/500
f 452/535/501 467/554/501 466/533/501
f 475/536/502 474/534/502 459/527/502
f 468/537/503 467/554/503 452/535/503
f 476/538/504 475/536/504 460/529/504
f 454/540/505 469/550/505 468/537/505
f 477/541/506 476/538/506 461/539/506
f 470/542/507 469/550/507 454/540/507
f 471/546/510 470/542/510 455/518/510
f 464/547/511 463/543/511 448/519/511
f 472/532/512 471/546/512 456/522/512
f 465/549/513 464/547/513 449/548/513
f 482/3/514 481/2/514 476/538/514
f 470/542/515 8/6/535 7/5/515
f 9/12/518 8/6/518 470/542/518
f 464/547/520 2/13/520 1/7/520
f 478/15/521 9/12/521 471/546/521
f 465/549/522 3/16/522 2/13/522
f 473/553/523 479/19/523 478/15/523
f 466/533/524 4/21/524 3/16/524
f 480/23/525 479/19/525 473/553/525
f 467/554/526 5/25/526 4/21/526
f 10/27/527 480/23/527 474/534/527
f 468/537/528 6/28/528 5/25/528
f 481/2/529 10/27/529 475/536/529
f 469/550/530 7/5/530 6/28/530
